<?xml version="1.0" standalone="no"?>
<!DOCTYPE svg PUBLIC "-//W3C//DTD SVG 20010904//EN"
 "http://www.w3.org/TR/2001/REC-SVG-20010904/DTD/svg10.dtd">
<svg version="1.0" xmlns="http://www.w3.org/2000/svg"
 width="509.000000pt" height="509.000000pt" viewBox="0 0 509.000000 509.000000"
 preserveAspectRatio="xMidYMid meet">

<g transform="translate(0.000000,509.000000) scale(0.100000,-0.100000)"
fill="#000000" stroke="none">
<path d="M350 3588 c0 -2 -32 -162 -70 -356 -39 -195 -70 -358 -70 -363 0 -5
55 -9 123 -9 l123 0 39 205 c22 113 43 205 46 205 3 0 37 -92 74 -205 l68
-205 141 0 142 0 68 348 c37 191 70 355 73 365 4 15 -6 17 -120 17 l-124 0
-38 -192 c-21 -106 -41 -201 -44 -211 -4 -11 -33 62 -76 193 l-69 210 -143 0
c-79 0 -143 -1 -143 -2z"/>
<path d="M1180 3230 c-99 -198 -180 -362 -180 -365 0 -3 46 -5 103 -5 l103 0
44 90 44 90 112 0 112 0 7 -90 7 -90 114 0 115 0 -7 73 c-3 39 -16 203 -27
362 l-22 290 -172 3 -173 2 -180 -360z m321 35 l2 -70 -61 -3 c-38 -2 -62 1
-62 7 0 6 24 58 53 117 l52 105 6 -43 c4 -24 8 -74 10 -113z"/>
<path d="M1930 3580 c0 -11 -126 -653 -137 -697 -5 -23 -4 -23 109 -23 l114 0
59 300 59 300 58 0 c98 0 128 -28 114 -104 -8 -43 -61 -91 -118 -107 -24 -7
-44 -13 -46 -14 -1 -1 9 -26 23 -56 14 -31 34 -108 45 -179 12 -68 23 -127 26
-132 3 -4 53 -8 111 -8 93 0 104 2 99 16 -3 9 -16 69 -27 132 -22 121 -39 169
-65 179 -11 4 4 15 44 34 85 41 117 90 117 179 0 58 -4 72 -29 105 -54 70 -91
79 -338 83 -162 3 -218 1 -218 -8z"/>
<path d="M210 2321 c0 -256 2 -290 17 -302 12 -11 70 -15 253 -17 222 -3 238
-2 261 17 l24 19 3 239 c4 266 -2 305 -46 321 -15 5 -136 9 -269 10 l-243 1 0
-288z m464 243 c14 -5 16 -38 16 -260 l0 -254 -22 -5 c-13 -3 -104 -4 -203 -3
l-180 3 -3 250 c-1 137 0 255 3 262 3 10 49 13 189 13 101 0 191 -3 200 -6z"/>
<path d="M487 2533 c-4 -3 -7 -19 -7 -35 l0 -29 -87 2 c-83 2 -88 1 -91 -19
-3 -20 0 -21 87 -19 100 3 101 3 101 -76 0 -21 7 -70 16 -109 l16 -71 -51 -50
c-48 -46 -56 -67 -27 -67 7 0 31 16 55 36 l42 37 34 -37 c26 -29 40 -37 62
-34 34 4 38 32 5 36 -15 2 -29 16 -39 37 -16 33 -16 35 20 107 20 40 38 88 39
107 3 30 0 34 -25 38 -16 2 -29 -1 -31 -9 -2 -7 -10 -34 -16 -60 -7 -27 -17
-48 -21 -48 -5 0 -9 39 -9 86 l0 87 31 -7 c34 -6 79 1 79 14 0 15 -64 80 -78
80 -11 0 -13 -8 -8 -31 5 -25 3 -30 -12 -27 -11 2 -18 14 -20 36 -3 28 -7 32
-31 32 -15 0 -31 -3 -34 -7z"/>
<path d="M307 2304 c1 -59 6 -90 15 -95 17 -11 119 -11 136 0 9 5 12 31 10 92
l-3 84 -80 3 -80 3 2 -87z m103 -10 c0 -52 -1 -55 -22 -52 -20 3 -23 10 -26
56 -3 50 -2 52 22 52 25 0 26 -3 26 -56z"/>
<path d="M302 2153 c3 -15 15 -18 83 -18 68 0 80 3 83 18 3 15 -6 17 -83 17
-77 0 -86 -2 -83 -17z"/>
<path d="M1120 2570 l0 -40 -125 0 -125 0 0 -60 0 -60 40 0 40 0 0 40 0 40
205 0 205 0 0 -23 c0 -35 22 -59 51 -55 21 3 24 9 27 46 5 67 -4 72 -129 72
l-109 0 0 40 0 40 -40 0 -40 0 0 -40z"/>
<path d="M1800 2581 l0 -31 -125 0 -125 0 0 -55 0 -55 40 0 c39 0 40 1 40 35
l0 35 202 -2 202 -3 8 -32 c14 -56 78 -40 78 18 0 46 -31 59 -142 59 l-97 0
-3 28 c-3 23 -8 27 -40 30 -36 3 -38 2 -38 -27z"/>
<path d="M2550 2589 c0 -42 -24 -101 -47 -116 -27 -18 -30 -43 -5 -43 38 0 81
38 99 89 15 44 21 51 44 51 22 0 31 -9 53 -54 36 -74 116 -123 116 -72 0 8
-11 21 -25 30 -14 9 -29 33 -36 58 -18 64 -35 75 -123 77 -72 2 -76 1 -76 -20z"/>
<path d="M3820 2570 l0 -40 -120 0 c-137 0 -134 2 -128 -96 3 -49 3 -49 41
-52 l37 -3 0 55 0 56 50 0 c59 0 60 -5 24 -78 -16 -33 -37 -58 -56 -68 -23
-12 -27 -19 -19 -27 9 -9 23 -6 58 13 50 27 98 84 108 131 6 26 11 29 46 29
l39 0 0 -70 c0 -96 14 -110 114 -110 54 0 75 4 79 14 9 22 -2 26 -65 26 l-58
0 0 71 0 70 48 -3 47 -3 3 -40 c5 -63 33 -83 67 -48 13 12 16 28 12 60 -8 69
-15 73 -138 73 l-109 0 0 40 0 40 -40 0 -40 0 0 -40z"/>
<path d="M4609 2598 c-1 -7 0 -25 1 -40 l2 -28 -71 0 -71 0 0 -70 0 -70 35 0
35 0 0 50 0 51 113 -3 112 -3 3 -37 c4 -43 23 -62 52 -53 16 5 20 15 20 53 0
69 -8 76 -89 80 l-71 4 0 39 c0 38 -1 39 -35 39 -21 0 -35 -5 -36 -12z"/>
<path d="M2220 2421 c0 -194 -1 -191 106 -191 l74 0 0 -31 0 -31 -19 23 c-25
31 -36 19 -22 -22 6 -18 11 -44 11 -58 0 -15 5 -32 12 -39 17 -17 0 -30 -47
-34 -27 -2 -40 -8 -40 -18 0 -22 99 -26 130 -6 27 18 45 82 45 165 0 64 -15
91 -51 91 -15 0 -19 7 -19 35 0 32 2 35 31 35 24 0 30 4 27 18 -2 10 -14 18
-31 20 -23 3 -27 8 -27 33 0 26 3 29 30 29 23 0 30 4 30 20 0 16 -7 20 -30 20
-27 0 -30 3 -30 30 0 28 3 30 35 30 28 0 35 4 35 20 0 19 -7 20 -125 20 l-125
0 0 -159z m120 89 c0 -25 -4 -30 -25 -30 -21 0 -25 5 -25 30 0 25 4 30 25 30
21 0 25 -5 25 -30z m0 -100 c0 -25 -4 -30 -25 -30 -21 0 -25 5 -25 30 0 25 4
30 25 30 21 0 25 -5 25 -30z m-2 -107 c3 -30 1 -33 -22 -33 -23 0 -26 4 -26
36 0 31 3 35 23 32 17 -2 23 -11 25 -35z"/>
<path d="M2870 2560 c0 -17 7 -20 40 -20 40 0 40 0 40 -38 0 -52 -25 -146 -57
-215 -20 -44 -24 -60 -15 -69 9 -9 18 -6 37 12 l25 23 0 -102 0 -101 28 -11
c15 -6 51 -9 81 -6 80 6 83 13 79 190 -3 166 -4 167 -76 167 l-44 0 8 33 c4
17 10 50 13 72 l6 40 53 3 c44 3 52 6 52 23 0 18 -8 19 -135 19 -128 0 -135
-1 -135 -20z m188 -347 c-3 -135 -4 -138 -25 -141 -23 -3 -23 -3 -23 137 l0
141 25 0 26 0 -3 -137z"/>
<path d="M3160 2560 c0 -15 7 -20 25 -20 25 0 25 0 25 -95 l0 -95 -35 0 c-28
0 -35 -4 -35 -20 0 -16 7 -20 36 -20 l37 0 -7 -71 c-7 -82 -25 -129 -68 -182
-20 -26 -27 -42 -20 -49 14 -14 43 4 90 57 40 46 65 110 77 198 6 44 8 47 36
47 l29 0 0 -139 c0 -114 3 -143 16 -155 8 -9 21 -16 28 -16 31 0 36 25 36 167
l0 143 31 0 c24 0 30 4 27 18 -2 10 -14 18 -31 20 l-27 3 0 94 c0 89 1 94 23
97 12 2 22 10 22 18 0 13 -25 15 -157 18 -153 2 -158 2 -158 -18z m190 -115
l0 -95 -30 0 -30 0 0 95 0 95 30 0 30 0 0 -95z"/>
<path d="M4250 2296 c0 -278 0 -285 20 -291 47 -15 50 -1 50 276 l0 259 30 0
c17 0 30 -3 30 -6 0 -3 -12 -45 -26 -91 l-26 -86 20 -36 c48 -87 51 -174 6
-185 -43 -11 -29 -36 20 -36 57 0 76 24 76 96 0 37 -8 68 -29 110 l-30 58 35
84 c52 125 51 126 -73 130 l-103 3 0 -285z"/>
<path d="M1648 2448 c-3 -33 -3 -33 -58 -34 -42 -1 -56 -5 -58 -17 -3 -13 8
-17 55 -19 49 -3 58 -6 61 -23 7 -40 28 -45 192 -45 164 0 185 5 192 45 3 17
12 21 56 23 37 2 52 7 52 18 0 9 -12 14 -37 15 -64 2 -68 3 -71 24 -7 41 -28
45 -208 45 l-173 0 -3 -32z m152 -23 c0 -16 -35 -20 -64 -9 -29 11 -16 24 24
24 29 0 40 -4 40 -15z m160 3 c0 -8 -16 -14 -40 -15 -30 -2 -40 1 -40 12 0 11
11 15 40 15 25 0 40 -5 40 -12z m-160 -63 c0 -11 -11 -15 -40 -15 -38 0 -49 8
-33 23 3 4 21 7 40 7 23 0 33 -5 33 -15z m160 0 c0 -11 -11 -15 -40 -15 -29 0
-40 4 -40 15 0 11 11 15 40 15 29 0 40 -4 40 -15z"/>
<path d="M990 2420 c0 -17 7 -20 42 -20 l43 0 -30 -30 c-17 -16 -55 -43 -85
-58 -61 -32 -74 -59 -25 -54 17 2 63 21 103 42 51 28 72 35 72 25 0 -18 -88
-84 -157 -119 -53 -26 -65 -42 -40 -52 19 -7 112 29 180 70 73 44 76 23 5 -34
-57 -45 -120 -80 -180 -99 -38 -12 -50 -34 -25 -44 20 -8 145 39 207 77 l55
35 3 -35 c5 -56 -19 -84 -74 -84 -38 0 -45 -3 -42 -17 4 -25 119 -31 153 -9
70 46 52 251 -29 325 -24 23 -25 26 -9 43 23 26 42 22 48 -9 20 -93 29 -123
50 -170 42 -93 157 -195 187 -165 10 10 2 21 -38 56 -28 25 -61 65 -75 91 -24
46 -24 47 -4 59 34 19 85 73 85 90 0 12 -10 16 -37 16 -32 0 -41 -5 -57 -33
l-19 -32 -8 25 c-4 14 -7 39 -8 57 -1 29 2 32 32 35 20 2 32 8 32 18 0 13 -28
15 -177 18 -173 2 -178 2 -178 -18z"/>
<path d="M2547 2415 c-4 -8 -2 -17 3 -20 15 -9 165 -3 177 7 25 20 0 28 -87
28 -68 0 -89 -3 -93 -15z"/>
<path d="M4560 2380 c0 -20 5 -21 92 -18 79 3 93 6 96 21 3 15 -6 17 -92 17
-90 0 -96 -1 -96 -20z"/>
<path d="M2490 2303 c0 -48 5 -84 12 -91 18 -18 94 -15 112 4 18 17 22 119 7
143 -6 9 -32 16 -70 19 l-61 4 0 -79z m80 -13 c0 -27 -4 -50 -10 -50 -11 0
-12 5 -12 45 0 46 2 55 12 55 6 0 10 -22 10 -50z"/>
<path d="M2650 2302 c0 -90 8 -102 63 -102 67 0 77 11 77 90 0 81 -9 90 -89
90 l-51 0 0 -78z m80 -12 c0 -27 -4 -50 -10 -50 -5 0 -10 23 -10 50 0 28 5 50
10 50 6 0 10 -22 10 -50z"/>
<path d="M3764 2290 l-7 -40 -73 0 c-67 0 -74 -2 -74 -20 0 -18 7 -20 71 -20
l72 0 -7 -32 c-12 -60 -50 -105 -108 -126 -51 -19 -70 -44 -37 -50 29 -5 130
40 164 74 19 18 42 56 52 84 l18 50 52 0 53 0 0 -75 c0 -124 17 -140 145 -133
45 2 60 7 60 18 0 11 -16 16 -60 20 l-60 5 -3 89 c-2 50 -8 96 -14 103 -7 9
-37 13 -88 13 l-78 0 5 40 6 40 -42 0 c-40 0 -41 -1 -47 -40z"/>
<path d="M1614 2229 c3 -34 6 -80 6 -101 0 -35 3 -40 31 -50 28 -10 30 -12 13
-21 -10 -6 -32 -13 -48 -16 -33 -7 -46 -28 -22 -37 25 -10 123 16 161 42 46
31 119 33 150 4 24 -23 144 -57 168 -47 30 11 18 26 -28 38 -56 14 -63 24 -28
41 27 13 28 17 31 97 2 52 -1 88 -9 97 -9 11 -53 14 -222 14 l-210 0 7 -61z
m356 11 c0 -6 -51 -10 -134 -10 -79 0 -137 4 -141 10 -4 6 43 10 134 10 87 0
141 -4 141 -10z m0 -60 c0 -6 -52 -10 -135 -10 -83 0 -135 4 -135 10 0 6 52
10 135 10 83 0 135 -4 135 -10z m0 -60 c0 -6 -52 -10 -135 -10 -83 0 -135 4
-135 10 0 6 52 10 135 10 83 0 135 -4 135 -10z"/>
<path d="M4490 2270 c0 -16 7 -20 30 -20 28 0 30 -2 30 -39 0 -75 -43 -151
-97 -172 -13 -5 -23 -13 -23 -19 0 -21 31 -21 75 0 74 36 103 82 120 193 4 23
11 37 20 37 12 0 15 -20 15 -109 0 -134 6 -141 112 -141 61 0 68 2 68 20 0 17
-7 20 -49 20 l-48 0 -6 78 c-9 121 -8 126 41 130 27 2 42 8 42 17 0 22 -25 25
-181 25 -142 0 -149 -1 -149 -20z"/>
<path d="M2215 2185 c-4 -17 -13 -47 -21 -68 -18 -48 -18 -47 10 -47 26 0 30
8 41 70 4 23 1 42 -9 55 -14 19 -15 19 -21 -10z"/>
<path d="M2260 2172 c0 -20 -4 -52 -9 -70 -10 -32 -9 -33 17 -30 24 3 27 8 30
44 3 44 -11 94 -28 94 -5 0 -10 -17 -10 -38z"/>
<path d="M2308 2203 c-2 -4 -2 -36 0 -70 4 -59 5 -63 28 -63 27 0 29 10 13 75
-11 43 -33 74 -41 58z"/>
<path d="M2530 2147 c0 -32 -42 -107 -60 -107 -6 0 -10 -9 -10 -20 0 -11 3
-20 6 -20 11 0 49 23 71 42 17 16 25 18 43 8 12 -6 28 -9 36 -6 12 4 11 11 -6
38 -11 18 -20 48 -20 66 0 29 -3 32 -30 32 -27 0 -30 -3 -30 -33z"/>
<path d="M2680 2141 c0 -30 -8 -49 -35 -82 -55 -65 -15 -78 52 -16 l22 20 36
-32 c20 -17 40 -31 45 -31 24 0 18 25 -14 60 -29 32 -36 48 -36 80 0 39 -1 40
-35 40 -34 0 -35 -1 -35 -39z"/>
<path d="M1140 1805 c0 -69 3 -85 15 -85 12 0 15 16 15 85 0 69 -3 85 -15 85
-12 0 -15 -16 -15 -85z"/>
<path d="M1760 1805 c0 -78 2 -85 20 -85 18 0 20 7 20 85 0 78 -2 85 -20 85
-18 0 -20 -7 -20 -85z"/>
<path d="M2130 1859 c0 -26 -3 -29 -20 -24 -25 8 -66 -16 -74 -43 -16 -50 39
-96 84 -72 13 7 20 7 20 1 0 -6 7 -8 15 -5 12 5 15 25 15 90 0 77 -2 84 -20
84 -16 0 -20 -7 -20 -31z m-5 -84 c0 -25 -4 -30 -25 -30 -16 0 -26 6 -28 18
-6 30 6 49 30 45 18 -2 23 -9 23 -33z"/>
<path d="M3170 1805 c0 -78 2 -85 20 -85 17 0 20 7 20 46 0 41 2 45 23 42 18
-2 23 -11 27 -48 3 -25 8 -44 13 -42 4 1 12 2 18 2 8 0 10 16 6 47 -6 53 -28
76 -64 67 -20 -6 -23 -3 -23 25 0 24 -4 31 -20 31 -18 0 -20 -7 -20 -85z"/>
<path d="M3659 1863 c-4 -71 0 -115 11 -128 19 -23 68 -29 95 -11 58 38 11
136 -50 108 -24 -11 -25 -10 -25 23 0 44 -29 50 -31 8z m91 -68 c20 -24 3 -57
-28 -53 -27 3 -39 26 -28 54 7 18 40 18 56 -1z"/>
<path d="M208 1800 c-3 -71 -1 -80 15 -80 14 0 17 9 17 57 l0 56 38 -56 c26
-41 43 -57 60 -57 21 0 22 4 22 80 0 75 -1 80 -21 80 -20 0 -21 -4 -17 -60 l4
-60 -39 60 c-57 87 -75 82 -79 -20z"/>
<path d="M620 1864 c0 -9 7 -14 17 -12 25 5 28 28 4 28 -12 0 -21 -6 -21 -16z"/>
<path d="M1288 1802 c-33 -93 -34 -96 -8 -82 11 6 20 17 20 25 0 25 67 20 75
-5 3 -11 15 -20 26 -20 10 0 19 1 19 3 0 1 -13 36 -29 77 -23 62 -33 76 -52
78 -22 2 -27 -5 -51 -76z m66 3 c5 -16 1 -21 -14 -22 -21 -2 -24 7 -13 46 6
24 14 18 27 -24z"/>
<path d="M1830 1864 c0 -9 7 -14 17 -12 25 5 28 28 4 28 -12 0 -21 -6 -21 -16z"/>
<path d="M2268 1800 c-3 -71 -1 -80 15 -80 14 0 17 10 17 70 0 62 2 70 19 70
10 0 24 -7 31 -15 13 -16 6 -35 -14 -35 -9 0 -7 -13 8 -45 13 -28 28 -45 38
-45 15 0 16 4 7 27 -6 15 -15 33 -20 39 -6 8 -5 14 6 18 22 8 19 53 -4 66 -11
5 -38 10 -60 10 l-39 0 -4 -80z"/>
<path d="M3392 1803 l3 -78 53 -3 c31 -2 52 1 52 7 0 6 -16 11 -35 11 l-35 0
0 70 c0 64 -2 70 -20 70 -19 0 -21 -5 -18 -77z"/>
<path d="M4547 1874 c-9 -10 2 -24 19 -24 8 0 14 7 14 15 0 15 -21 21 -33 9z"/>
<path d="M543 1863 c-7 -2 -13 -11 -13 -18 0 -7 -6 -16 -12 -19 -10 -5 -10 -7
0 -12 6 -3 12 -21 12 -39 0 -19 7 -41 16 -49 20 -20 54 -21 54 -1 0 8 -7 15
-15 15 -10 0 -15 11 -15 35 0 24 5 35 15 35 8 0 15 5 15 10 0 6 -7 10 -15 10
-8 0 -15 9 -15 20 0 20 -5 23 -27 13z"/>
<path d="M4210 1846 c0 -8 -6 -17 -12 -20 -10 -5 -10 -7 0 -12 6 -3 12 -23 12
-44 0 -41 26 -67 56 -56 19 7 18 26 -1 26 -8 0 -15 3 -16 8 0 4 -2 18 -3 31
-2 16 3 25 16 29 22 5 24 22 3 22 -8 0 -15 7 -15 15 0 8 -9 15 -20 15 -11 0
-20 -6 -20 -14z"/>
<path d="M407 1833 c-26 -7 -10 -23 23 -23 16 0 32 -4 35 -10 4 -6 -6 -10 -24
-10 -34 0 -64 -25 -59 -49 5 -23 52 -37 86 -25 23 8 27 16 30 49 1 22 -1 46
-6 52 -9 14 -58 24 -85 16z m63 -73 c0 -12 -35 -31 -44 -23 -15 15 -4 33 19
33 14 0 25 -4 25 -10z"/>
<path d="M712 1828 c-44 -21 -40 -92 5 -109 37 -14 91 6 99 36 9 37 -4 62 -38
74 -36 13 -36 13 -66 -1z m66 -49 c4 -34 -22 -57 -43 -39 -16 13 -20 51 -8 64
16 16 48 1 51 -25z"/>
<path d="M907 1833 c-4 -3 -20 -6 -37 -5 -30 1 -30 0 -30 -54 0 -47 3 -54 19
-54 16 0 20 8 23 43 2 34 7 42 23 42 16 0 21 -8 25 -45 3 -25 8 -44 13 -42 4
1 12 2 17 2 6 0 10 20 10 44 0 35 -5 48 -22 60 -25 18 -32 19 -41 9z"/>
<path d="M1018 1833 c-31 -8 -19 -23 17 -23 19 0 35 -4 35 -10 0 -5 -10 -10
-23 -10 -13 0 -31 -6 -41 -13 -43 -32 14 -81 72 -61 23 8 27 16 30 51 2 33 -1
44 -20 57 -22 16 -37 18 -70 9z m57 -72 c10 -17 -31 -33 -44 -17 -6 7 -8 16
-4 19 10 10 41 8 48 -2z"/>
<path d="M1507 1834 c-4 -4 -20 -7 -37 -6 l-30 1 0 -80 c0 -72 2 -79 20 -79
15 0 20 7 20 26 0 21 4 24 20 19 20 -6 59 9 72 29 12 17 9 50 -4 68 -15 18
-51 31 -61 22z m28 -59 c0 -25 -4 -30 -25 -30 -16 0 -26 6 -28 18 -6 30 6 49
30 45 18 -2 23 -9 23 -33z"/>
<path d="M1660 1830 c-8 -5 -25 -7 -37 -3 -22 5 -23 3 -23 -76 0 -74 2 -81 20
-81 14 0 20 7 20 23 0 20 5 23 36 23 40 0 64 23 64 59 0 42 -48 75 -80 55z
m35 -55 c0 -25 -4 -30 -25 -30 -16 0 -26 6 -28 18 -6 30 6 49 30 45 18 -2 23
-9 23 -33z"/>
<path d="M1922 1828 c-44 -22 -40 -92 6 -109 28 -11 82 -3 82 12 0 5 -18 9
-40 9 -30 0 -40 4 -40 16 0 11 8 15 28 14 57 -4 64 -1 57 23 -4 12 -10 25 -14
29 -12 13 -57 17 -79 6z m58 -29 c0 -5 -11 -9 -25 -9 -26 0 -34 15 -12 23 16
5 37 -3 37 -14z"/>
<path d="M2436 1819 c-60 -47 -3 -128 74 -104 32 10 23 24 -17 27 -52 4 -52
24 -1 27 23 1 44 4 46 6 10 10 -11 43 -34 53 -33 16 -37 15 -68 -9z m64 -20
c0 -5 -11 -9 -25 -9 -26 0 -34 15 -12 23 16 5 37 -3 37 -14z"/>
<path d="M2578 1829 c-28 -16 -22 -47 13 -65 22 -11 28 -18 19 -24 -7 -4 -20
-5 -30 -3 -10 3 -21 0 -24 -6 -10 -16 42 -25 70 -12 34 15 31 47 -8 68 l-33
18 28 3 c30 4 36 17 11 26 -21 8 -26 7 -46 -5z"/>
<path d="M2700 1827 c-20 -10 -25 -20 -25 -52 0 -34 4 -42 28 -53 17 -8 40
-11 58 -7 37 8 27 22 -20 27 -19 2 -36 9 -39 16 -3 9 3 13 14 12 52 -6 74 0
74 19 0 19 -34 51 -55 51 -5 0 -21 -6 -35 -13z m55 -27 c4 -6 -7 -10 -25 -10
-18 0 -29 4 -25 10 3 6 15 10 25 10 10 0 22 -4 25 -10z"/>
<path d="M2838 1833 c-26 -7 -22 -25 5 -23 35 3 47 1 47 -10 0 -5 -9 -10 -21
-10 -31 0 -59 -19 -59 -40 0 -40 67 -53 100 -20 52 52 2 122 -72 103z m52 -77
c0 -8 -6 -16 -13 -19 -19 -7 -41 8 -33 22 10 16 46 14 46 -3z"/>
<path d="M3001 1831 c-7 -5 -22 -6 -32 -4 -17 5 -19 -1 -19 -50 0 -46 3 -55
20 -60 18 -5 20 0 20 38 0 35 4 45 20 50 11 3 20 13 20 21 0 16 -9 18 -29 5z"/>
<path d="M3081 1828 c-33 -18 -45 -40 -38 -70 8 -29 55 -53 86 -43 31 10 25
23 -11 27 -29 3 -33 6 -33 33 0 27 4 30 33 33 20 2 32 8 29 15 -5 17 -38 19
-66 5z"/>
<path d="M3530 1830 c-15 -10 -11 -12 27 -14 32 -1 28 -20 -6 -29 -36 -9 -44
-20 -36 -46 7 -24 53 -35 88 -22 24 9 27 16 27 55 0 35 -5 48 -19 56 -24 13
-61 13 -81 0z m63 -76 c-7 -18 -43 -18 -43 0 0 8 6 16 13 19 19 7 36 -3 30
-19z"/>
<path d="M3842 1828 c-49 -24 -37 -101 18 -113 33 -7 76 13 87 41 9 25 -6 60
-32 72 -31 14 -43 14 -73 0z m63 -53 c0 -25 -4 -30 -25 -30 -16 0 -26 6 -28
18 -6 30 6 49 30 45 18 -2 23 -9 23 -33z"/>
<path d="M4021 1831 c-7 -5 -22 -6 -32 -4 -17 5 -19 -1 -19 -51 0 -49 2 -56
20 -56 17 0 20 7 20 39 0 31 4 41 20 46 11 3 20 13 20 21 0 16 -9 18 -29 5z"/>
<path d="M4088 1833 c-31 -8 -19 -23 17 -23 19 0 35 -4 35 -10 0 -5 -9 -10
-21 -10 -54 0 -80 -48 -38 -71 27 -14 85 -3 93 17 25 65 -20 115 -86 97z m52
-77 c0 -8 -6 -16 -13 -19 -19 -7 -41 8 -33 22 10 16 46 14 46 -3z"/>
<path d="M4325 1828 c-27 -15 -35 -28 -35 -59 0 -32 16 -47 58 -55 25 -5 36
-1 56 19 32 32 33 51 1 82 -26 27 -49 31 -80 13z m60 -53 c0 -25 -4 -30 -25
-30 -16 0 -26 6 -28 18 -6 30 6 49 30 45 18 -2 23 -9 23 -33z"/>
<path d="M4501 1831 c-7 -5 -22 -6 -32 -4 -17 5 -19 -1 -19 -51 0 -49 2 -56
20 -56 17 0 20 7 20 41 0 32 4 42 20 46 11 3 20 12 20 19 0 16 -9 18 -29 5z"/>
<path d="M4641 1827 c-70 -36 -22 -132 56 -112 35 8 27 23 -14 27 -56 5 -55
28 1 28 39 0 46 3 46 19 0 19 -34 51 -55 51 -5 0 -21 -6 -34 -13z m49 -22 c11
-13 8 -15 -21 -15 -32 1 -33 1 -15 15 24 18 21 18 36 0z"/>
<path d="M4773 1830 c-34 -14 -30 -49 7 -63 17 -6 30 -15 30 -19 0 -4 -13 -8
-30 -8 -34 0 -40 -15 -10 -25 27 -9 58 2 70 26 9 16 6 22 -25 41 -37 21 -33
41 6 31 23 -6 26 12 3 21 -19 7 -23 7 -51 -4z"/>
<path d="M620 1775 c0 -48 2 -55 20 -55 18 0 20 7 20 55 0 48 -2 55 -20 55
-18 0 -20 -7 -20 -55z"/>
<path d="M1830 1775 c0 -48 2 -55 20 -55 18 0 20 7 20 55 0 48 -2 55 -20 55
-18 0 -20 -7 -20 -55z"/>
<path d="M4552 1773 c4 -81 28 -85 28 -4 0 48 -3 61 -15 61 -13 0 -15 -11 -13
-57z"/>
</g>
</svg>
