<?xml version="1.0" standalone="no"?>
<!DOCTYPE svg PUBLIC "-//W3C//DTD SVG 20010904//EN"
 "http://www.w3.org/TR/2001/REC-SVG-20010904/DTD/svg10.dtd">
<svg version="1.0" xmlns="http://www.w3.org/2000/svg"
 width="500.000000pt" height="500.000000pt" viewBox="0 0 500.000000 500.000000"
 preserveAspectRatio="xMidYMid meet">

<g transform="translate(0.000000,500.000000) scale(0.100000,-0.100000)"
fill="#000000" stroke="none">
<path d="M710 2710 l0 -570 70 0 70 0 0 500 0 500 213 0 213 0 33 28 c24 20
34 38 38 70 l6 42 -322 0 -321 0 0 -570z"/>
<path d="M2720 2705 l0 -565 70 0 70 0 0 565 0 565 -70 0 -70 0 0 -565z"/>
<path d="M2360 2871 c-76 -24 -141 -80 -174 -151 -19 -41 -21 -67 -24 -312
l-4 -268 65 0 65 0 4 243 c3 227 5 245 26 288 33 68 84 93 173 86 l68 -6 15
46 c9 25 14 49 11 53 -15 24 -168 38 -225 21z"/>
<path d="M930 2805 l0 -65 160 0 160 0 0 36 c0 26 -8 43 -29 65 l-29 29 -131
0 -131 0 0 -65z"/>
<path d="M3847 2850 c-105 -27 -197 -104 -244 -205 -23 -50 -27 -73 -27 -140
0 -69 5 -90 31 -145 50 -106 141 -180 242 -196 l41 -7 0 54 0 54 -45 19 c-147
60 -183 278 -65 393 48 47 106 66 180 61 109 -8 184 -88 197 -209 10 -106 -57
-216 -154 -251 -32 -12 -33 -14 -33 -66 l0 -55 41 7 c92 15 201 100 245 193
63 134 32 307 -73 408 -50 49 -144 86 -225 90 -40 3 -90 0 -111 -5z"/>
<path d="M1393 2603 c4 -273 8 -291 80 -369 65 -72 132 -98 237 -92 87 5 137
27 191 85 73 76 74 80 77 361 l3 253 -63 -3 -63 -3 -5 -237 c-5 -219 -7 -239
-26 -264 -76 -103 -212 -95 -273 16 -24 42 -25 54 -29 267 l-5 223 -64 0 -65
0 5 -237z"/>
<path d="M3046 2819 c-21 -5 -56 -19 -77 -31 -38 -21 -39 -23 -39 -80 0 -32 2
-58 5 -58 2 0 21 11 41 25 93 63 204 58 275 -14 42 -42 59 -91 59 -176 0 -182
-161 -276 -322 -188 l-58 31 0 -63 0 -64 58 -28 c144 -71 334 -5 414 144 95
174 31 402 -134 482 -53 25 -162 36 -222 20z"/>
<path d="M2104 1959 c-73 -21 -107 -119 -65 -186 43 -68 158 -67 200 1 61 98
-25 216 -135 185z m106 -45 c19 -19 25 -34 25 -70 0 -39 -5 -50 -33 -75 -52
-47 -118 -34 -147 28 -51 106 71 197 155 117z"/>
<path d="M2990 1957 c-50 -18 -83 -70 -77 -125 17 -153 237 -142 237 11 0 53
-26 93 -72 112 -45 17 -43 17 -88 2z m113 -48 c60 -64 12 -169 -78 -169 -32 0
-82 44 -90 79 -9 44 18 99 57 116 43 18 76 10 111 -26z"/>
<path d="M710 1845 l0 -115 58 0 c44 0 63 5 75 18 23 25 22 78 0 91 -15 8 -16
12 -5 22 17 18 15 64 -4 83 -10 11 -34 16 -70 16 l-54 0 0 -115z m114 73 c18
-29 -4 -53 -53 -56 l-41 -3 0 41 0 41 41 -3 c27 -2 46 -9 53 -20z m-3 -88 c21
-12 25 -50 7 -68 -7 -7 -31 -12 -55 -12 l-43 0 0 45 c0 45 0 45 36 45 19 0 44
-5 55 -10z"/>
<path d="M1065 1933 c10 -16 29 -44 42 -63 17 -25 23 -49 23 -87 0 -40 4 -53
15 -53 11 0 15 12 15 51 0 43 7 62 40 115 23 37 35 64 28 64 -7 0 -29 -25 -48
-55 l-35 -54 -35 55 c-19 29 -41 54 -49 54 -10 0 -9 -6 4 -27z"/>
<path d="M1660 1950 c0 -5 16 -10 35 -10 l35 0 0 -105 c0 -87 3 -105 15 -105
12 0 15 18 15 105 l0 105 40 0 c22 0 40 5 40 10 0 6 -37 10 -90 10 -53 0 -90
-4 -90 -10z"/>
<path d="M2470 1845 c0 -141 18 -156 22 -18 l3 97 41 -94 c22 -52 45 -95 50
-97 5 -2 27 41 49 94 l40 96 3 -96 c4 -138 22 -122 22 19 0 146 -13 149 -72
15 -38 -87 -43 -92 -52 -70 -50 119 -77 169 -90 169 -14 0 -16 -18 -16 -115z"/>
<path d="M3360 1845 c0 -96 3 -115 15 -115 12 0 15 13 15 55 l0 55 50 0 c28 0
50 5 50 10 0 6 -22 10 -50 10 l-50 0 0 40 0 40 55 0 c30 0 55 5 55 10 0 6 -30
10 -70 10 l-70 0 0 -115z"/>
<path d="M3710 1861 c0 -96 1 -100 26 -120 15 -12 39 -21 54 -21 15 0 39 9 54
21 25 20 26 24 26 120 0 59 -4 99 -10 99 -6 0 -10 -37 -10 -90 0 -77 -3 -93
-20 -110 -11 -11 -29 -20 -40 -20 -11 0 -29 9 -40 20 -17 17 -20 33 -20 110 0
53 -4 90 -10 90 -6 0 -10 -40 -10 -99z"/>
<path d="M4100 1845 c0 -140 18 -156 22 -19 l3 96 65 -94 c92 -130 100 -129
100 16 0 144 -18 156 -22 15 l-3 -101 -69 101 c-38 56 -75 101 -82 101 -11 0
-14 -25 -14 -115z"/>
</g>
</svg>
