<?xml version="1.0" encoding="UTF-8"?>
<svg version="1.1" xmlns="http://www.w3.org/2000/svg" width="115" height="172">
<path d="M0 0 C37.95 0 75.9 0 115 0 C115 56.76 115 113.52 115 172 C77.05 172 39.1 172 0 172 C0 115.24 0 58.48 0 0 Z " fill="#FCFCFC" transform="translate(0,0)"/>
<path d="M0 0 C2.59515537 0.35069667 4.52570246 0.66623506 6.6875 2.1875 C9.97169653 6.72281901 10.46480121 11.31445536 9.75390625 16.72265625 C8.83922508 19.4856569 7.56079152 20.77709811 5.5 22.8125 C2.1091697 26.19561458 1.5140511 28.51192959 1.28125 33.26171875 C1.22001953 34.33768311 1.15878906 35.41364746 1.09570312 36.5222168 C1.06412109 37.33988525 1.03253906 38.15755371 1 39 C1.56154282 38.99777939 2.12308563 38.99555878 2.7016449 38.99327087 C8.52480435 38.97121694 14.34795201 38.95609295 20.17114258 38.94506836 C22.34692873 38.94002692 24.52271147 38.93319393 26.69848633 38.92456055 C29.81853067 38.91248662 32.93853038 38.90676995 36.05859375 38.90234375 C37.03775253 38.89718246 38.01691132 38.89202118 39.02574158 38.88670349 C39.92659988 38.88662796 40.82745819 38.88655243 41.75561523 38.88647461 C42.55281479 38.884254 43.35001434 38.88203339 44.17137146 38.87974548 C46 39 46 39 47 40 C47.62699351 44.09808131 47.72564986 47.91234647 47 52 C45.26298496 54.16803614 43.42470147 55.52650623 41.1796875 57.15234375 C36.75221484 60.90538061 33.45923286 66.81437419 32.62890625 72.57421875 C33.1075797 75.7032315 34.26072725 76.92313076 36.4375 79.1875 C40.80177873 83.79864702 41.584889 86.65489369 41.54296875 93.03515625 C40.56726947 98.36289547 37.09082416 101.65830343 33 105 C31.865625 105.474375 30.73125 105.94875 29.5625 106.4375 C28.716875 106.953125 27.87125 107.46875 27 108 C26.63705236 110.0774187 26.63705236 110.0774187 26.625 112.5 C26.30758403 119.50362969 22.75019024 124.05576604 18 129 C12.89352863 132.876276 6.56664935 137 0 137 C0.02094727 137.7113208 0.04189453 138.4226416 0.06347656 139.15551758 C0.14655725 142.37436828 0.19863466 145.59299366 0.25 148.8125 C0.28351562 149.93205078 0.31703125 151.05160156 0.3515625 152.20507812 C0.36445312 153.27822266 0.37734375 154.35136719 0.390625 155.45703125 C0.41157227 156.44678955 0.43251953 157.43654785 0.45410156 158.45629883 C0 161 0 161 -1.85644531 162.8581543 C-4 164 -4 164 -6.6875 163.8125 C-9 163 -9 163 -10 161 C-8.35 160.67 -6.7 160.34 -5 160 C-6.65 159.34 -8.3 158.68 -10 158 C-9.7215625 156.7934375 -9.7215625 156.7934375 -9.4375 155.5625 C-9.293125 154.716875 -9.14875 153.87125 -9 153 C-9.33 152.67 -9.66 152.34 -10 152 C-10.25 149.5625 -10.25 149.5625 -10 147 C-9.01 146.34 -8.02 145.68 -7 145 C-6.42006301 142.80545319 -6.42006301 142.80545319 -6.3125 140.375 C-6.24675781 139.55773437 -6.18101563 138.74046875 -6.11328125 137.8984375 C-6.05720703 136.95871094 -6.05720703 136.95871094 -6 136 C-6.66 136.33 -7.32 136.66 -8 137 C-15.60009139 137.79167619 -21.53046138 134.76878439 -28.1875 131.375 C-33.42862401 126.94916194 -38.0674997 121.35985952 -38.9375 114.375 C-38.958125 113.26125 -38.97875 112.1475 -39 111 C-37.515 111.495 -37.515 111.495 -36 112 C-35.34 110.35 -34.68 108.7 -34 107 C-35.010625 107.061875 -36.02125 107.12375 -37.0625 107.1875 C-41.57812527 106.97247023 -44.10660378 106.30719776 -48 104 C-50.85128823 100.55259862 -53 97.5413001 -53 93 C-52.34 93 -51.68 93 -51 93 C-51.061875 91.948125 -51.12375 90.89625 -51.1875 89.8125 C-50.95743542 85.13452031 -49.91398554 82.89790163 -46.60546875 79.6171875 C-43.91223905 77.23078144 -41.63241733 75.41912508 -38 75 C-38.94875 74.938125 -39.8975 74.87625 -40.875 74.8125 C-41.90625 74.544375 -42.9375 74.27625 -44 74 C-45.0625 71.9375 -45.0625 71.9375 -46 69 C-48.7270945 63.97751322 -51.99254309 59.63779968 -55.86328125 55.4453125 C-57 54 -57 54 -57 52 C-57.66 52 -58.32 52 -59 52 C-59 47.38 -59 42.76 -59 38 C-43.16 38 -27.32 38 -11 38 C-11.13344162 28.13298282 -11.13344162 28.13298282 -16.0625 22.1875 C-18.88140462 19.62621057 -19.90410043 18.69375994 -20.43359375 14.86328125 C-20.29050781 13.91839844 -20.14742187 12.97351562 -20 12 C-19.01 11.34 -18.02 10.68 -17 10 C-15.98133771 8.34467377 -14.98189187 6.67739862 -14 5 C-12.27787201 2.81724203 -11.42085823 2.08431217 -8.66015625 1.53125 C-1.58160083 1.44609445 -1.58160083 1.44609445 1.625 4.5 C2.305625 5.7375 2.305625 5.7375 3 7 C2.67 7.66 2.34 8.32 2 9 C0.700625 8.195625 0.700625 8.195625 -0.625 7.375 C-3.91436321 5.67718197 -3.91436321 5.67718197 -7.25 6.625 C-10.25323758 7.84237252 -10.25323758 7.84237252 -12 11 C-12.38499891 12.65549531 -12.72793135 14.3222433 -13 16 C-12.01 16 -11.02 16 -10 16 C-10 15.34 -10 14.68 -10 14 C-6.7 14 -3.4 14 0 14 C0 15.98 0 17.96 0 20 C3.27773504 19.24849977 3.27773504 19.24849977 5 16 C5.3597865 11.23282893 4.97969257 7.37616252 3 3 C2.01 2.67 1.02 2.34 0 2 C0 1.34 0 0.68 0 0 Z " fill="#D2AF03" transform="translate(61,6)"/>
<path d="M0 0 C1.09763672 -0.00128906 2.19527344 -0.00257812 3.32617188 -0.00390625 C4.48310547 -0.00003906 5.64003906 0.00382812 6.83203125 0.0078125 C7.96962891 0.00394531 9.10722656 0.00007813 10.27929688 -0.00390625 C11.93541992 -0.00197266 11.93541992 -0.00197266 13.625 0 C14.63457764 0.00112793 15.64415527 0.00225586 16.68432617 0.00341797 C19.64453125 0.1328125 19.64453125 0.1328125 25.64453125 1.1328125 C25.64453125 26.8728125 25.64453125 52.6128125 25.64453125 79.1328125 C15.48804017 79.1328125 8.59465682 76.46111245 0.64453125 70.1328125 C-3.35546875 65.84012957 -3.35546875 65.84012957 -3.35546875 63.1328125 C-4.01546875 63.1328125 -4.67546875 63.1328125 -5.35546875 63.1328125 C-5.68546875 64.4528125 -6.01546875 65.7728125 -6.35546875 67.1328125 C-6.68546875 64.4928125 -7.01546875 61.8528125 -7.35546875 59.1328125 C-6.36546875 59.4628125 -5.37546875 59.7928125 -4.35546875 60.1328125 C-3.69546875 58.4828125 -3.03546875 56.8328125 -2.35546875 55.1328125 C-3.36609375 55.1946875 -4.37671875 55.2565625 -5.41796875 55.3203125 C-9.93359402 55.10528273 -12.46207253 54.44001026 -16.35546875 52.1328125 C-19.20675698 48.68541112 -21.35546875 45.6741126 -21.35546875 41.1328125 C-20.69546875 41.1328125 -20.03546875 41.1328125 -19.35546875 41.1328125 C-19.41734375 40.0809375 -19.47921875 39.0290625 -19.54296875 37.9453125 C-19.31290417 33.26733281 -18.26945429 31.03071413 -14.9609375 27.75 C-12.2677078 25.36359394 -9.98788608 23.55193758 -6.35546875 23.1328125 C-7.01546875 22.4728125 -7.67546875 21.8128125 -8.35546875 21.1328125 C-6.70546875 21.1328125 -5.05546875 21.1328125 -3.35546875 21.1328125 C-3.57203125 20.27558594 -3.78859375 19.41835937 -4.01171875 18.53515625 C-6.87033237 6.79631235 -6.87033237 6.79631235 -6.35546875 1.1328125 C-4.63379249 -0.58886376 -2.34559415 0.00263529 0 0 Z " fill="#1E190D" transform="translate(29.35546875,57.8671875)"/>
<path d="M0 0 C0.85917023 0.00009567 1.71834045 0.00019135 2.60354614 0.00028992 C5.42203403 0.00402989 8.24017762 0.02300463 11.05859375 0.04296875 C12.99649944 0.04982939 14.93440642 0.05633729 16.87231445 0.0625 C34.08965006 0.14023063 51.29141352 0.5828604 68.49609375 1.23046875 C68.12109375 3.66796875 68.12109375 3.66796875 67.49609375 6.23046875 C64.70489284 7.6260692 62.29403683 7.44855163 59.17578125 7.546875 C57.91894531 7.58876953 56.66210938 7.63066406 55.3671875 7.67382812 C53.38912109 7.73280273 53.38912109 7.73280273 51.37109375 7.79296875 C50.03123624 7.83616387 48.69139219 7.87977848 47.3515625 7.92382812 C44.0665156 8.03017856 40.78139094 8.13220683 37.49609375 8.23046875 C37.48578629 9.15532578 37.47547882 10.0801828 37.46485901 11.0330658 C37.36706193 19.73006099 37.26457337 28.42698531 37.15675449 37.12386227 C37.10148498 41.59548869 37.04805868 46.0671216 36.9987793 50.53881836 C36.95119498 54.85064641 36.89885459 59.16239243 36.843153 63.474123 C36.82270247 65.12280814 36.80399394 66.77151581 36.78701973 68.4202404 C36.76303516 70.72156835 36.73297298 73.02273985 36.70141602 75.32397461 C36.68587173 76.63635605 36.67032745 77.94873749 36.65431213 79.30088806 C36.49609375 82.23046875 36.49609375 82.23046875 35.49609375 83.23046875 C40.65990353 83.89249565 44.02341226 82.41937107 48.37890625 79.875 C51.29255144 77.61181804 52.84784779 75.05377005 54.5234375 71.8046875 C54.84441406 71.28519531 55.16539063 70.76570313 55.49609375 70.23046875 C56.15609375 70.23046875 56.81609375 70.23046875 57.49609375 70.23046875 C58.25022728 66.98690299 58.25022728 66.98690299 57.49609375 63.23046875 C55.3846402 61.34493204 53.21110045 59.99623749 50.7578125 58.58984375 C48.61978338 57.3048107 47.06406754 56.16464695 45.49609375 54.23046875 C45.80859375 52.04296875 45.80859375 52.04296875 46.49609375 50.23046875 C47.21796875 50.99359375 47.93984375 51.75671875 48.68359375 52.54296875 C52.94891876 56.79083043 52.94891876 56.79083043 58.56640625 58.3984375 C64.09027875 58.14565011 67.19541408 56.46050723 71.18359375 52.703125 C73.98846243 49.55599556 73.81898991 46.59707186 73.79296875 42.55078125 C73.34976989 39.08683229 71.61719983 36.93005831 69.49609375 34.23046875 C69.16609375 33.24046875 68.83609375 32.25046875 68.49609375 31.23046875 C72.88465052 32.95454462 75.41096312 36.06020748 77.49609375 40.23046875 C78.31536518 45.1714356 78.55733742 49.46348487 75.921875 53.8515625 C72.85156167 57.41312597 70.43157927 59.83926571 66.05859375 61.66796875 C65.21296875 62.18359375 64.36734375 62.69921875 63.49609375 63.23046875 C63.13314611 65.30788745 63.13314611 65.30788745 63.12109375 67.73046875 C62.80367778 74.73409844 59.24628399 79.28623479 54.49609375 84.23046875 C49.38962238 88.10674475 43.0627431 92.23046875 36.49609375 92.23046875 C36.51704102 92.94178955 36.53798828 93.65311035 36.55957031 94.38598633 C36.642651 97.60483703 36.69472841 100.82346241 36.74609375 104.04296875 C36.79636719 105.72229492 36.79636719 105.72229492 36.84765625 107.43554688 C36.86054687 108.50869141 36.8734375 109.58183594 36.88671875 110.6875 C36.90766602 111.6772583 36.92861328 112.6670166 36.95019531 113.68676758 C36.49609375 116.23046875 36.49609375 116.23046875 34.63964844 118.08862305 C32.49609375 119.23046875 32.49609375 119.23046875 29.80859375 119.04296875 C27.49609375 118.23046875 27.49609375 118.23046875 26.49609375 116.23046875 C28.97109375 115.73546875 28.97109375 115.73546875 31.49609375 115.23046875 C29.84609375 114.57046875 28.19609375 113.91046875 26.49609375 113.23046875 C26.68171875 112.42609375 26.86734375 111.62171875 27.05859375 110.79296875 C27.20296875 109.94734375 27.34734375 109.10171875 27.49609375 108.23046875 C27.16609375 107.90046875 26.83609375 107.57046875 26.49609375 107.23046875 C26.24609375 104.79296875 26.24609375 104.79296875 26.49609375 102.23046875 C27.48609375 101.57046875 28.47609375 100.91046875 29.49609375 100.23046875 C30.07603074 98.03592194 30.07603074 98.03592194 30.18359375 95.60546875 C30.24933594 94.78820312 30.31507812 93.9709375 30.3828125 93.12890625 C30.42019531 92.50242187 30.45757812 91.8759375 30.49609375 91.23046875 C29.50609375 91.72546875 29.50609375 91.72546875 28.49609375 92.23046875 C20.87505291 93.02432717 14.89858697 89.99714792 8.24609375 86.54296875 C4.47397324 83.37095832 1.61816904 79.69284693 -0.50390625 75.23046875 C-0.66796875 72.4453125 -0.66796875 72.4453125 -0.50390625 70.23046875 C0.15609375 70.23046875 0.81609375 70.23046875 1.49609375 70.23046875 C2.72265625 71.8046875 2.72265625 71.8046875 4.12109375 73.91796875 C11.23748005 83.53103472 18.00984375 83.73321875 30.49609375 86.23046875 C30.49609375 60.49046875 30.49609375 34.75046875 30.49609375 8.23046875 C20.26609375 8.23046875 10.03609375 8.23046875 -0.50390625 8.23046875 C-0.61142627 14.09998601 -0.61142627 14.09998601 0.49609375 19.35546875 C1.33752711 22.4012205 1.69504839 25.04719446 1.49609375 28.23046875 C-1.47390625 28.56046875 -4.44390625 28.89046875 -7.50390625 29.23046875 C-7.84421875 28.24046875 -7.84421875 28.24046875 -8.19140625 27.23046875 C-10.94142109 20.94472055 -14.7265229 15.70219379 -19.3671875 10.67578125 C-20.50390625 9.23046875 -20.50390625 9.23046875 -20.50390625 7.23046875 C-21.16390625 7.23046875 -21.82390625 7.23046875 -22.50390625 7.23046875 C-22.17390625 5.91046875 -21.84390625 4.59046875 -21.50390625 3.23046875 C-20.47330078 3.15699219 -20.47330078 3.15699219 -19.421875 3.08203125 C-18.07029297 2.96988281 -18.07029297 2.96988281 -16.69140625 2.85546875 C-15.79808594 2.78585938 -14.90476562 2.71625 -13.984375 2.64453125 C-8.95096119 1.80430784 -5.48861177 -0.04798553 0 0 Z " fill="#0C0A05" transform="translate(24.50390625,50.76953125)"/>
<path d="M0 0 C1.07507813 -0.00128906 2.15015625 -0.00257812 3.2578125 -0.00390625 C4.38960937 -0.00003906 5.52140625 0.00382812 6.6875 0.0078125 C7.81929687 0.00394531 8.95109375 0.00007813 10.1171875 -0.00390625 C11.19226563 -0.00261719 12.26734375 -0.00132813 13.375 0 C14.86580078 0.00169189 14.86580078 0.00169189 16.38671875 0.00341797 C18.6875 0.1328125 18.6875 0.1328125 19.6875 1.1328125 C19.49233705 4.20662904 19.17687521 7.10140495 18.6875 10.1328125 C18.54828125 11.00550781 18.4090625 11.87820312 18.265625 12.77734375 C16.82182876 19.28418222 16.82182876 19.28418222 13.59375 21.69921875 C12.00877359 22.5200101 10.40270272 23.30146038 8.77734375 24.0390625 C6.00858324 25.48813342 5.02850531 27.37191921 3.6875 30.1328125 C3.0275 30.1328125 2.3675 30.1328125 1.6875 30.1328125 C1.3575 34.7528125 1.0275 39.3728125 0.6875 44.1328125 C1.3475 44.1328125 2.0075 44.1328125 2.6875 44.1328125 C3.33138672 45.25236328 3.33138672 45.25236328 3.98828125 46.39453125 C5.92866995 49.52145648 7.82425565 50.92468962 10.875 52.9453125 C12.22658203 53.85216797 12.22658203 53.85216797 13.60546875 54.77734375 C14.29253906 55.22464844 14.97960937 55.67195313 15.6875 56.1328125 C15.3575 58.4428125 15.0275 60.7528125 14.6875 63.1328125 C14.0275 63.1328125 13.3675 63.1328125 12.6875 63.1328125 C12.3471875 64.215625 12.3471875 64.215625 12 65.3203125 C9.24296939 71.22823523 4.42303398 74.46282255 -1.3125 77.1328125 C-5.25 77.3828125 -5.25 77.3828125 -8.3125 77.1328125 C-7.8175 76.1428125 -7.8175 76.1428125 -7.3125 75.1328125 C-7.19637645 72.80013037 -7.14543068 70.46412556 -7.12304688 68.12866211 C-7.11475357 67.40821213 -7.10646027 66.68776215 -7.09791565 65.94548035 C-7.0805048 64.37948246 -7.06534081 62.81345838 -7.05213928 61.24741936 C-7.03114476 58.77275086 -7.00412087 56.2982145 -6.97546387 53.82362366 C-6.90556326 47.6786452 -6.84615603 41.53357309 -6.78643799 35.38848877 C-6.73559078 30.19602923 -6.68079655 25.00364127 -6.62062073 19.8112812 C-6.593957 17.36663536 -6.57319815 14.92198318 -6.5526123 12.47727966 C-6.53601678 10.98737263 -6.51914561 9.49746863 -6.50195312 8.00756836 C-6.48942505 6.70121933 -6.47689697 5.3948703 -6.46398926 4.04893494 C-6.20956374 -0.84867932 -4.42476951 0.00502163 0 0 Z " fill="#F7F7F6" transform="translate(67.3125,57.8671875)"/>
<path d="M0 0 C1.12019531 -0.00128906 2.24039062 -0.00257812 3.39453125 -0.00390625 C4.57402344 -0.00003906 5.75351562 0.00382812 6.96875 0.0078125 C8.73798828 0.00201172 8.73798828 0.00201172 10.54296875 -0.00390625 C12.22326172 -0.00197266 12.22326172 -0.00197266 13.9375 0 C14.97326172 0.00112793 16.00902344 0.00225586 17.07617188 0.00341797 C19.46875 0.1328125 19.46875 0.1328125 20.46875 1.1328125 C20.56307985 3.34149081 20.58617431 5.55322771 20.58227539 7.76391602 C20.58242142 8.45656555 20.58256744 9.14921509 20.5827179 9.862854 C20.58201874 12.16250696 20.57422628 14.46207987 20.56640625 16.76171875 C20.56454208 18.35212662 20.56311817 19.94253507 20.56211853 21.53294373 C20.55829329 25.7267718 20.54846295 29.92056545 20.53741455 34.11437988 C20.52720057 38.39070164 20.52262094 42.66702894 20.51757812 46.94335938 C20.50684069 55.33985958 20.48976419 63.73633176 20.46875 72.1328125 C12.97318202 71.22130896 8.88325802 69.12411858 4.09375 63.2578125 C2.24404738 60.62516697 1.45529249 59.07449661 0.71875 55.8828125 C1.78243434 51.9826366 4.16031692 51.33843456 7.46875 49.1328125 C10.58654468 44.14205692 11.60003209 37.88178238 10.46875 32.1328125 C8.79068727 28.80776227 6.88584109 25.84135805 3.46875 24.1328125 C3.46875 23.4728125 3.46875 22.8128125 3.46875 22.1328125 C2.540625 21.9678125 1.6125 21.8028125 0.65625 21.6328125 C-2.85259439 19.98159161 -3.07467558 19.67162268 -4.34375 16.2578125 C-4.77201204 14.89256503 -5.16826727 13.51684738 -5.53125 12.1328125 C-5.71816406 11.46378906 -5.90507812 10.79476562 -6.09765625 10.10546875 C-6.75867247 7.09814273 -6.64685861 4.19644078 -6.53125 1.1328125 C-4.78579395 -0.61264355 -2.37000783 0.0025809 0 0 Z " fill="#F9F8F8" transform="translate(29.53125,57.8671875)"/>
<path d="M0 0 C2.59515537 0.35069667 4.52570246 0.66623506 6.6875 2.1875 C9.95549191 6.70044121 10.48152596 11.28992138 9.75 16.67578125 C8.37368831 20.94091382 5.38064781 24.13464724 2 27 C1.34 27 0.68 27 0 27 C0.01160156 28.04800781 0.02320313 29.09601562 0.03515625 30.17578125 C0.04453655 31.55468572 0.0536365 32.93359211 0.0625 34.3125 C0.07087891 35.00279297 0.07925781 35.69308594 0.08789062 36.40429688 C0.10307906 39.5483025 0.00193327 41.99420019 -1 45 C8.9 45 18.8 45 29 45 C29 45.33 29 45.66 29 46 C28.0795842 45.99555878 27.1591684 45.99111755 26.21086121 45.98654175 C17.54399781 45.94649584 8.87716541 45.91603128 0.21023083 45.89637566 C-4.24570978 45.88593087 -8.70157404 45.87175901 -13.1574707 45.84912109 C-17.45628804 45.82741746 -21.75503187 45.81543661 -26.05389977 45.81024551 C-27.69538213 45.80654529 -29.3368604 45.79931983 -30.97831154 45.78853989 C-33.27444838 45.77405783 -35.57028004 45.77202066 -37.86645508 45.77294922 C-39.17439529 45.768508 -40.48233551 45.76406677 -41.82991028 45.75949097 C-45.15832745 45.75154332 -45.15832745 45.75154332 -48 48 C-50.48046875 48.1953125 -50.48046875 48.1953125 -53.1875 48.125 C-54.08855469 48.10695312 -54.98960938 48.08890625 -55.91796875 48.0703125 C-56.60503906 48.04710937 -57.29210938 48.02390625 -58 48 C-58.33 48.66 -58.66 49.32 -59 50 C-59 46.04 -59 42.08 -59 38 C-43.16 38 -27.32 38 -11 38 C-11.13344162 28.13298282 -11.13344162 28.13298282 -16.0625 22.1875 C-18.88140462 19.62621057 -19.90410043 18.69375994 -20.43359375 14.86328125 C-20.29050781 13.91839844 -20.14742187 12.97351562 -20 12 C-19.01 11.34 -18.02 10.68 -17 10 C-15.98133771 8.34467377 -14.98189187 6.67739862 -14 5 C-12.27787201 2.81724203 -11.42085823 2.08431217 -8.66015625 1.53125 C-1.58160083 1.44609445 -1.58160083 1.44609445 1.625 4.5 C2.305625 5.7375 2.305625 5.7375 3 7 C2.67 7.66 2.34 8.32 2 9 C0.700625 8.195625 0.700625 8.195625 -0.625 7.375 C-3.91436321 5.67718197 -3.91436321 5.67718197 -7.25 6.625 C-10.25323758 7.84237252 -10.25323758 7.84237252 -12 11 C-12.38499891 12.65549531 -12.72793135 14.3222433 -13 16 C-12.01 16 -11.02 16 -10 16 C-10 15.34 -10 14.68 -10 14 C-6.7 14 -3.4 14 0 14 C0 15.98 0 17.96 0 20 C3.27773504 19.24849977 3.27773504 19.24849977 5 16 C5.3597865 11.23282893 4.97969257 7.37616252 3 3 C2.01 2.67 1.02 2.34 0 2 C0 1.34 0 0.68 0 0 Z " fill="#0B0904" transform="translate(61,6)"/>
<path d="M0 0 C0.01213028 1.30212433 0.01213028 1.30212433 0.02450562 2.6305542 C0.10244785 10.81161218 0.18973747 18.99250552 0.28752708 27.17335129 C0.33747196 31.37920585 0.38380213 35.58503551 0.421875 39.79101562 C0.45875071 43.85005664 0.50511681 47.90888846 0.55806351 51.96775055 C0.57659532 53.51625143 0.59170779 55.06479713 0.60334396 56.61336517 C0.62022737 58.7825004 0.64926669 60.9511578 0.68115234 63.12011719 C0.69447601 64.35477722 0.70779968 65.58943726 0.7215271 66.86151123 C0.98387105 69.81822101 1.44667108 71.51167493 3 74 C3.66 73.67 4.32 73.34 5 73 C4.505 74.485 4.505 74.485 4 76 C9.16380978 76.6620269 12.52731851 75.18890232 16.8828125 72.64453125 C19.79645769 70.38134929 21.35175404 67.8233013 23.02734375 64.57421875 C23.34832031 64.05472656 23.66929688 63.53523438 24 63 C24.66 63 25.32 63 26 63 C26.75413353 59.75643424 26.75413353 59.75643424 26 56 C23.88854645 54.11446329 21.7150067 52.76576874 19.26171875 51.359375 C17.12368963 50.07434195 15.56797379 48.9341782 14 47 C14.3125 44.8125 14.3125 44.8125 15 43 C15.721875 43.763125 16.44375 44.52625 17.1875 45.3125 C21.45282501 49.56036168 21.45282501 49.56036168 27.0703125 51.16796875 C32.594185 50.91518136 35.69932033 49.23003848 39.6875 45.47265625 C42.49236868 42.32552681 42.32289616 39.36660311 42.296875 35.3203125 C41.85367614 31.85636354 40.12110608 29.69958956 38 27 C37.505 25.515 37.505 25.515 37 24 C41.38855677 25.72407587 43.91486937 28.82973873 46 33 C46.81927143 37.94096685 47.06124367 42.23301612 44.42578125 46.62109375 C41.35546792 50.18265722 38.93548552 52.60879696 34.5625 54.4375 C33.716875 54.953125 32.87125 55.46875 32 56 C31.63705236 58.0774187 31.63705236 58.0774187 31.625 60.5 C31.30758403 67.50362969 27.75019024 72.05576604 23 77 C17.89352863 80.876276 11.56664935 85 5 85 C5.02094727 85.7113208 5.04189453 86.4226416 5.06347656 87.15551758 C5.14655725 90.37436828 5.19863466 93.59299366 5.25 96.8125 C5.30027344 98.49182617 5.30027344 98.49182617 5.3515625 100.20507812 C5.36445312 101.27822266 5.37734375 102.35136719 5.390625 103.45703125 C5.41157227 104.44678955 5.43251953 105.43654785 5.45410156 106.45629883 C5 109 5 109 3.14355469 110.8581543 C1 112 1 112 -1.6875 111.8125 C-4 111 -4 111 -5 109 C-2.525 108.505 -2.525 108.505 0 108 C-1.65 107.34 -3.3 106.68 -5 106 C-4.814375 105.195625 -4.62875 104.39125 -4.4375 103.5625 C-4.293125 102.716875 -4.14875 101.87125 -4 101 C-4.495 100.505 -4.495 100.505 -5 100 C-5.25 97.5625 -5.25 97.5625 -5 95 C-3.515 94.01 -3.515 94.01 -2 93 C-1.42006301 90.80545319 -1.42006301 90.80545319 -1.3125 88.375 C-1.24675781 87.55773437 -1.18101563 86.74046875 -1.11328125 85.8984375 C-1.07589844 85.27195312 -1.03851563 84.64546875 -1 84 C-1.99 84.495 -1.99 84.495 -3 85 C-10.62104084 85.79385842 -16.59750678 82.76667917 -23.25 79.3125 C-27.02212051 76.14048957 -29.87792471 72.46237818 -32 68 C-32.1640625 65.21484375 -32.1640625 65.21484375 -32 63 C-31.34 63 -30.68 63 -30 63 C-28.7734375 64.57421875 -28.7734375 64.57421875 -27.375 66.6875 C-20.2586137 76.30056597 -13.48625 76.50275 -1 79 C-1 53.26 -1 27.52 -1 1 C-2.98 1 -4.96 1 -7 1 C-3.375 -1.125 -3.375 -1.125 0 0 Z " fill="#0F0C05" transform="translate(56,58)"/>
<path d="M0 0 C11.88 0.33 23.76 0.66 36 1 C35.67 2.65 35.34 4.3 35 6 C32.20879909 7.39560045 29.79794308 7.21808288 26.6796875 7.31640625 C25.42285156 7.35830078 24.16601562 7.40019531 22.87109375 7.44335938 C20.89302734 7.50233398 20.89302734 7.50233398 18.875 7.5625 C17.53514249 7.60569512 16.19529844 7.64930973 14.85546875 7.69335938 C11.57042185 7.79970981 8.28529719 7.90173808 5 8 C4.99120064 9.34637039 4.99120064 9.34637039 4.98222351 10.71994019 C4.92439099 19.1665617 4.85236918 27.6129161 4.76428509 36.05927849 C4.71950059 40.40196768 4.68026266 44.74456131 4.65356445 49.08740234 C4.62761155 53.27617928 4.58726709 57.46459002 4.53681374 61.65314102 C4.5200905 63.2535256 4.50861031 64.85397359 4.50238609 66.45443344 C4.49280372 68.69120701 4.46481783 70.92703211 4.43237305 73.16357422 C4.42126999 74.43820526 4.41016693 75.7128363 4.39872742 77.02609253 C4.26714737 78.00748199 4.13556732 78.98887146 4 80 C2.515 80.99 2.515 80.99 1 82 C-0.98658909 77.83693365 -1.28082266 74.38524268 -1.35058594 69.79467773 C-1.36384415 69.08836212 -1.37710236 68.38204651 -1.39076233 67.65432739 C-1.43168551 65.33078975 -1.4585313 63.00734445 -1.484375 60.68359375 C-1.50818119 59.06363628 -1.53254245 57.44368688 -1.55743408 55.82374573 C-1.60727176 52.43373586 -1.65007968 49.04372805 -1.68798828 45.65356445 C-1.73716715 41.30993993 -1.8042964 36.96681031 -1.87673569 32.62351894 C-1.93043687 29.28046402 -1.97440195 25.93733497 -2.01544952 22.59410286 C-2.03632952 20.99249056 -2.06029039 19.39091534 -2.08739471 17.78939629 C-2.12385311 15.55156178 -2.14714254 13.31396296 -2.16699219 11.07592773 C-2.18316589 9.80305405 -2.1993396 8.53018036 -2.21600342 7.21873474 C-2 4 -2 4 0 0 Z " fill="#080706" transform="translate(57,51)"/>
<path d="M0 0 C-0.66 1.32 -1.32 2.64 -2 4 C-2.99 4 -3.98 4 -5 4 C-5 5.98 -5 7.96 -5 10 C-2.36 10 0.28 10 3 10 C2.34 10.99 1.68 11.98 1 13 C0.60612212 15.32387947 0.26513915 17.65793749 0 20 C-1.1960083 19.98952637 -2.3920166 19.97905273 -3.62426758 19.96826172 C-8.05783093 19.93208595 -12.49138121 19.90910834 -16.92504883 19.89013672 C-18.84466749 19.88007361 -20.76427081 19.86642184 -22.68383789 19.84912109 C-25.44160752 19.82488636 -28.19917464 19.81352008 -30.95703125 19.8046875 C-31.81649857 19.79436493 -32.67596588 19.78404236 -33.56147766 19.77340698 C-34.36208115 19.77325592 -35.16268463 19.77310486 -35.98754883 19.77294922 C-36.6914827 19.768508 -37.39541656 19.76406677 -38.12068176 19.75949097 C-40.3333238 19.90112227 -40.3333238 19.90112227 -43 22 C-45.48046875 22.1953125 -45.48046875 22.1953125 -48.1875 22.125 C-49.08855469 22.10695313 -49.98960938 22.08890625 -50.91796875 22.0703125 C-51.60503906 22.04710938 -52.29210938 22.02390625 -53 22 C-53.33 22.66 -53.66 23.32 -54 24 C-54 20.04 -54 16.08 -54 12 C-38.16 12 -22.32 12 -6 12 C-6 8.37 -6 4.74 -6 1 C-3 0 -3 0 0 0 Z " fill="#D1AD03" transform="translate(56,32)"/>
<path d="M0 0 C1.65 0 3.3 0 5 0 C5 25.41 5 50.82 5 77 C3.02 77 1.04 77 -1 77 C-1.495 74.525 -1.495 74.525 -2 72 C-1.01 71.505 -1.01 71.505 0 71 C0 47.57 0 24.14 0 0 Z " fill="#C19C0A" transform="translate(50,59)"/>
<path d="M0 0 C4 4.21052632 4 4.21052632 4 7 C3.01 6.67 2.02 6.34 1 6 C1 5.34 1 4.68 1 4 C0.01 4 -0.98 4 -2 4 C-2.09087891 5.93166016 -2.09087891 5.93166016 -2.18359375 7.90234375 C-2.26798247 9.58074159 -2.3526313 11.25912636 -2.4375 12.9375 C-2.47681641 13.78763672 -2.51613281 14.63777344 -2.55664062 15.51367188 C-2.59853516 16.32255859 -2.64042969 17.13144531 -2.68359375 17.96484375 C-2.72025146 18.7137085 -2.75690918 19.46257324 -2.79467773 20.23413086 C-3 22 -3 22 -4 23 C-7.38168693 23.43836682 -10.62344355 23.48685233 -14 23 C-17.0625 20.5625 -17.0625 20.5625 -19 18 C-19.33 17.67 -19.66 17.34 -20 17 C-20.58411619 11.91531642 -20.56749559 8.05932511 -18.125 3.5 C-14.83104683 -0.37523902 -13.2654247 -1.4550128 -8.09375 -1.9609375 C-4.95663277 -2.01946581 -2.80036122 -1.40018061 0 0 Z " fill="#0C0A05" transform="translate(92,84)"/>
<path d="M0 0 C0.33 0.66 0.66 1.32 1 2 C2.65391846 2.39171753 4.32345271 2.72057545 6 3 C6.99 3.33 7.98 3.66 9 4 C9.33 3.01 9.66 2.02 10 1 C10.2475 2.03125 10.495 3.0625 10.75 4.125 C11.55002051 7.02362503 12.26172628 8.35410027 14.125 10.875 C16.25401613 14.42336021 16.7655376 16.6011454 16.5859375 20.68359375 C15.24214892 25.99603794 11.06900872 29.63881005 6.625 32.5625 C1.31607209 33.44732132 -3.32725559 33.09092027 -7.875 30.125 C-9.15629234 28.84370766 -10.42971176 27.55437299 -11.6875 26.25 C-12.93929598 24.77011494 -12.93929598 24.77011494 -15 25 C-15.02694851 23.04174127 -15.04637218 21.08337774 -15.0625 19.125 C-15.07410156 18.03445312 -15.08570312 16.94390625 -15.09765625 15.8203125 C-15 13 -15 13 -14 11 C-13.34 11 -12.68 11 -12 11 C-11.7525 10.236875 -11.505 9.47375 -11.25 8.6875 C-8.96927409 3.78393929 -4.72931266 2.25717195 0 0 Z M-5 6 C-8.17987393 8.67203166 -10.75531735 12.02506149 -11.2734375 16.20703125 C-11.54732924 22.09238852 -11.54732924 22.09238852 -8.5625 27.0625 C-7.716875 27.701875 -6.87125 28.34125 -6 29 C-5.67 29.33 -5.34 29.66 -5 30 C-3.33570949 30.09823937 -1.66718069 30.12973631 0 30.125 C0.9075 30.12757812 1.815 30.13015625 2.75 30.1328125 C4.96966611 30.25173779 4.96966611 30.25173779 6 29 C6.15582303 27.65984779 6.25044142 26.31241097 6.31640625 24.96484375 C6.35830078 24.15595703 6.40019531 23.34707031 6.44335938 22.51367188 C6.48267578 21.66353516 6.52199219 20.81339844 6.5625 19.9375 C6.60568359 19.08349609 6.64886719 18.22949219 6.69335938 17.34960938 C6.79976702 15.23327963 6.90041731 13.11666187 7 11 C7.99 11 8.98 11 10 11 C10.33 11.99 10.66 12.98 11 14 C11.66 14 12.32 14 13 14 C11.82884146 10.66670261 10.88352404 8.13594373 8 6 C3.79443023 4.55809036 -0.78637715 4.58694668 -5 6 Z " fill="#6A5201" transform="translate(83,77)"/>
<path d="M0 0 C0 0.66 0 1.32 0 2 C1.65 2 3.3 2 5 2 C4.01 2.33 3.02 2.66 2 3 C2.804375 3.928125 3.60875 4.85625 4.4375 5.8125 C7.11786127 8.90522455 7.9282755 11.22537536 8.3125 15.375 C7.95180184 19.55909865 6.87491538 21.03524352 4 24 C3.01 23.67 2.02 23.34 1 23 C1.33 21.02 1.66 19.04 2 17 C-1.3 17 -4.6 17 -8 17 C-8 17.66 -8 18.32 -8 19 C-8.99 19 -9.98 19 -11 19 C-11.38684492 15.61510691 -11.12328851 14.2009146 -9.3125 11.25 C-6.6898948 8.69827602 -5.63980041 8 -2 8 C1.3125 9.4375 1.3125 9.4375 4 11 C3.23025247 8.3202093 3.23025247 8.3202093 1 6 C-3.50899794 5.06736966 -7.55786836 5.09866772 -11.5 7.5625 C-13.36822152 10.59835996 -14.20151322 13.53989064 -15 17 C-15.99 16.34 -16.98 15.68 -18 15 C-17.125 8.25 -17.125 8.25 -16 6 C-15.34 6 -14.68 6 -14 6 C-14 5.34 -14 4.68 -14 4 C-9.22642128 1.28608722 -5.65611463 -0.56561146 0 0 Z " fill="#816915" transform="translate(59,3)"/>
<path d="M0 0 C0.99 0.33 1.98 0.66 3 1 C3.48454937 5.09848011 3.6644796 8.91448872 3 13 C1.30313294 15.02828641 -0.53350377 16.27375178 -2.6875 17.80078125 C-7.72334035 22.58993347 -10.17637421 29.74446733 -13 36 C-15.76276177 35.47731534 -18.3260876 34.89130413 -21 34 C-20.67 32.68 -20.34 31.36 -20 30 C-19.01 30 -18.02 30 -17 30 C-16.773125 29.195625 -16.54625 28.39125 -16.3125 27.5625 C-14.92895499 23.80716353 -13.15189529 20.58332438 -11.12109375 17.1484375 C-10.04475736 15.08577194 -9.45736808 13.27142349 -9 11 C-8.34 11 -7.68 11 -7 11 C-6.89816406 10.41734375 -6.79632813 9.8346875 -6.69140625 9.234375 C-5.88482847 6.62780725 -4.75842991 5.26464586 -2.9375 3.25 C-2.38964844 2.63640625 -1.84179688 2.0228125 -1.27734375 1.390625 C-0.85582031 0.93171875 -0.43429688 0.4728125 0 0 Z " fill="#0F0C06" transform="translate(105,45)"/>
<path d="M0 0 C5.66176471 2.98529412 5.66176471 2.98529412 7 7 C4.83125748 6.49396008 3.00032373 6.00016187 1 5 C1 11.27 1 17.54 1 24 C-1.31 24 -3.62 24 -6 24 C-6 23.01 -6 22.02 -6 21 C-5.01 20.34 -4.02 19.68 -3 19 C-2.77862607 16.37302936 -2.71837975 13.99106036 -2.8125 11.375 C-2.82603516 10.66859375 -2.83957031 9.9621875 -2.85351562 9.234375 C-2.8888896 7.48925872 -2.94269779 5.74453392 -3 4 C-4.31571603 4.2547514 -5.62760376 4.52934141 -6.9375 4.8125 C-7.66839844 4.96332031 -8.39929688 5.11414063 -9.15234375 5.26953125 C-9.76207031 5.51058594 -10.37179688 5.75164062 -11 6 C-12.85639564 11.56918691 -12.61597842 16.76804316 -10 22 C-9.34 22 -8.68 22 -8 22 C-8 22.66 -8 23.32 -8 24 C-11.17033042 23.66032174 -11.99882607 23.00130809 -14.1875 20.5625 C-17.05339935 16.51071126 -17.37210798 14.26554781 -16.7578125 9.3984375 C-14.32448346 1.69707652 -7.44640683 -1.3211367 0 0 Z " fill="#1B170A" transform="translate(27,82)"/>
<path d="M0 0 C2.38671875 0.4375 2.38671875 0.4375 5.01171875 2.9375 C5.69234375 4.175 5.69234375 4.175 6.38671875 5.4375 C6.05671875 6.0975 5.72671875 6.7575 5.38671875 7.4375 C4.52046875 6.90125 3.65421875 6.365 2.76171875 5.8125 C-0.52764446 4.11468197 -0.52764446 4.11468197 -3.86328125 5.0625 C-6.86651883 6.27987252 -6.86651883 6.27987252 -8.61328125 9.4375 C-8.99828016 11.09299531 -9.3412126 12.7597433 -9.61328125 14.4375 C-8.62328125 14.4375 -7.63328125 14.4375 -6.61328125 14.4375 C-6.61328125 13.7775 -6.61328125 13.1175 -6.61328125 12.4375 C-3.31328125 12.4375 -0.01328125 12.4375 3.38671875 12.4375 C3.05671875 13.0975 2.72671875 13.7575 2.38671875 14.4375 C1.39671875 14.7675 0.40671875 15.0975 -0.61328125 15.4375 C-0.94328125 17.4175 -1.27328125 19.3975 -1.61328125 21.4375 C-5.6693429 20.96949289 -9.07916804 20.55796792 -12.61328125 18.4375 C-12.94328125 19.0975 -13.27328125 19.7575 -13.61328125 20.4375 C-15.87068348 17.99198092 -16.5855085 16.66893959 -16.98828125 13.3125 C-16.86453125 12.36375 -16.74078125 11.415 -16.61328125 10.4375 C-15.62328125 9.7775 -14.63328125 9.1175 -13.61328125 8.4375 C-12.59461896 6.78217377 -11.59517312 5.11489862 -10.61328125 3.4375 C-7.58211989 -0.40442792 -4.6363179 -0.10829356 0 0 Z " fill="#241D09" transform="translate(57.61328125,7.5625)"/>
<path d="M0 0 C0.33 0 0.66 0 1 0 C1 3.96 1 7.92 1 12 C15.19 12 29.38 12 44 12 C41 17 41 17 39 18 C38.505 16.515 38.505 16.515 38 15 C28.1 15.495 28.1 15.495 18 16 C17.67 16.66 17.34 17.32 17 18 C11.06 18 5.12 18 -1 18 C-0.505 9.09 -0.505 9.09 0 0 Z " fill="#C19F18" transform="translate(61,33)"/>
<path d="M0 0 C1.32 0.33 2.64 0.66 4 1 C4.98120464 4.05263664 4.98120464 5.94736336 4 9 C3.34 9 2.68 9 2 9 C1.773125 9.721875 1.54625 10.44375 1.3125 11.1875 C-1.44453061 17.09542273 -6.26446602 20.33001005 -12 23 C-15.9375 23.25 -15.9375 23.25 -19 23 C-18.34 20.36 -17.68 17.72 -17 15 C-14.36 15 -11.72 15 -9 15 C-9 14.34 -9 13.68 -9 13 C-7.8553125 12.1028125 -7.8553125 12.1028125 -6.6875 11.1875 C-2.87580885 8.08496069 -0.89499756 4.83298681 0 0 Z " fill="#F1CE0A" transform="translate(78,112)"/>
<path d="M0 0 C3.76687864 1.88343932 4.79421646 2.69132469 7 6 C7.66 5.67 8.32 5.34 9 5 C9 8.3 9 11.6 9 15 C8.34 15 7.68 15 7 15 C6.7525 15.598125 6.505 16.19625 6.25 16.8125 C4.70462524 19.51690582 3.79352635 20.56742238 1 22 C-2.01726886 22.24492511 -4.98018176 22.17422028 -8 22 C-7.67 21.34 -7.34 20.68 -7 20 C-3.535 19.505 -3.535 19.505 0 19 C0 12.73 0 6.46 0 0 Z " fill="#D1BA44" transform="translate(28,87)"/>
<path d="M0 0 C0.33 0 0.66 0 1 0 C1.33 18.48 1.66 36.96 2 56 C2.33 54.35 2.66 52.7 3 51 C3.66 51 4.32 51 5 51 C5 59.25 5 67.5 5 76 C3.02 76 1.04 76 -1 76 C-1.495 73.525 -1.495 73.525 -2 71 C-1.01 70.505 -1.01 70.505 0 70 C0 46.9 0 23.8 0 0 Z " fill="#D2BD54" transform="translate(50,60)"/>
<path d="M0 0 C0.2757817 2.43707088 0.52131492 4.87095049 0.75 7.3125 C0.87181641 8.34793945 0.87181641 8.34793945 0.99609375 9.40429688 C1.171875 11.42578125 1.171875 11.42578125 1 15 C-0.734375 16.98046875 -0.734375 16.98046875 -3 18 C-4.32 18 -5.64 18 -7 18 C-9.49047972 15.15373746 -10.23732726 12.63034187 -10.4375 8.9375 C-10 5 -10 5 -8.1875 2.5625 C-5.35371119 0.53836514 -3.48389199 0 0 0 Z " fill="#B49513" transform="translate(24,86)"/>
<path d="M0 0 C-0.06002758 2.44012105 -0.14700204 4.87413526 -0.25 7.3125 C-0.27126953 8.34793945 -0.27126953 8.34793945 -0.29296875 9.40429688 C-0.54187913 14.55674183 -0.54187913 14.55674183 -3.046875 16.98046875 C-3.69140625 17.31691406 -4.3359375 17.65335938 -5 18 C-7.33028092 17.06788763 -8.75891532 16.30996602 -10.3125 14.3125 C-11.34473351 10.84044182 -10.91760547 8.48690078 -10 5 C-6.80128285 0.82389705 -5.16634271 -0.28605589 0 0 Z " fill="#D6B92D" transform="translate(86,86)"/>
<path d="M0 0 C-0.66 1.32 -1.32 2.64 -2 4 C-2.99 4 -3.98 4 -5 4 C-5 6.97 -5 9.94 -5 13 C-5.99 13 -6.98 13 -8 13 C-8 13.66 -8 14.32 -8 15 C-19.06908499 17.19811617 -29.82572796 17.83184787 -41 16 C-41.33 15.34 -41.66 14.68 -42 14 C-37.59099498 13.17072931 -33.33396993 12.81768286 -28.8515625 12.68359375 C-28.19417084 12.66281265 -27.53677917 12.64203156 -26.85946655 12.62062073 C-24.78140638 12.55579247 -22.70323144 12.49655436 -20.625 12.4375 C-19.20701989 12.39425112 -17.78905093 12.35063491 -16.37109375 12.30664062 C-12.9141812 12.20018082 -9.45714294 12.09873016 -6 12 C-6 8.37 -6 4.74 -6 1 C-3 0 -3 0 0 0 Z " fill="#C49D03" transform="translate(56,32)"/>
<path d="M0 0 C13.53 0 27.06 0 41 0 C41 0.33 41 0.66 41 1 C23.675 1.495 23.675 1.495 6 2 C6 2.66 6 3.32 6 4 C7.32 4 8.64 4 10 4 C9.67 5.32 9.34 6.64 9 8 C9.66 8 10.32 8 11 8 C11 8.66 11 9.32 11 10 C7.7 10 4.4 10 1 10 C0.67 10.66 0.34 11.32 0 12 C0 8.04 0 4.08 0 0 Z " fill="#DBC145" transform="translate(2,44)"/>
<path d="M0 0 C0.33 0 0.66 0 1 0 C1.13535156 0.58007812 1.27070313 1.16015625 1.41015625 1.7578125 C2.92304844 7.24770872 4.79293054 10.37939904 9.18359375 14.00390625 C11.23927462 15.32055507 11.23927462 15.32055507 15 15 C15.66 14.34 16.32 13.68 17 13 C18.98 13.99 20.96 14.98 23 16 C23 17.32 23 18.64 23 20 C24.98 20.33 26.96 20.66 29 21 C29 21.33 29 21.66 29 22 C19.2703147 22.62104374 11.54631836 19.00686942 4 13 C0 8.70731707 0 8.70731707 0 6 C-0.66 6 -1.32 6 -2 6 C-2.33 7.32 -2.66 8.64 -3 10 C-3.33 7.36 -3.66 4.72 -4 2 C-3.01 2.33 -2.02 2.66 -1 3 C-0.67 2.01 -0.34 1.02 0 0 Z " fill="#816707" transform="translate(26,115)"/>
<path d="M0 0 C2.29013653 3.4352048 2.17842973 4.985331 2 9 C1.34 9 0.68 9 0 9 C0 8.34 0 7.68 0 7 C-3.3 7 -6.6 7 -10 7 C-10 7.66 -10 8.32 -10 9 C-10.99 9 -11.98 9 -13 9 C-13.39600661 5.53494217 -13.14386351 4.21827567 -11.1875 1.25 C-7.29649931 -2.75217213 -4.84672283 -2.06243525 0 0 Z " fill="#F1F1F0" transform="translate(61,13)"/>
<path d="M0 0 C4.38855677 1.72407587 6.91486937 4.82973873 9 9 C9.82763561 13.99141066 10.04210775 18.25725184 7.390625 22.69140625 C3.86892175 26.81550611 1.54715014 29.35882328 -4 30 C-4 29.34 -4 28.68 -4 28 C-4.66 27.67 -5.32 27.34 -6 27 C-4.6696875 26.443125 -4.6696875 26.443125 -3.3125 25.875 C0.61558916 23.65155331 2.5901745 21.82736992 5 18 C5.9983014 13.156068 5.52658392 9.91727522 3.0625 5.625 C2.381875 4.75875 1.70125 3.8925 1 3 C0.67 2.01 0.34 1.02 0 0 Z " fill="#0F0D08" transform="translate(93,82)"/>
<path d="M0 0 C0.00808685 0.86808289 0.01617371 1.73616577 0.02450562 2.6305542 C0.10244785 10.81161218 0.18973747 18.99250552 0.28752708 27.17335129 C0.33747196 31.37920585 0.38380213 35.58503551 0.421875 39.79101562 C0.45875071 43.85005664 0.50511681 47.90888846 0.55806351 51.96775055 C0.57659532 53.51625143 0.59170779 55.06479713 0.60334396 56.61336517 C0.62022737 58.7825004 0.64926669 60.9511578 0.68115234 63.12011719 C0.69447601 64.35477722 0.70779968 65.58943726 0.7215271 66.86151123 C0.98387105 69.81822101 1.44667108 71.51167493 3 74 C3.99 73.505 3.99 73.505 5 73 C4.67 73.99 4.34 74.98 4 76 C5.32 76.66 6.64 77.32 8 78 C5.03 78 2.06 78 -1 78 C-1 52.59 -1 27.18 -1 1 C-2.98 1 -4.96 1 -7 1 C-3.375 -1.125 -3.375 -1.125 0 0 Z " fill="#6D5603" transform="translate(56,58)"/>
<path d="M0 0 C0.99 0 1.98 0 3 0 C4.90234375 2.30078125 4.90234375 2.30078125 6.9375 5.3125 C9.35056648 8.8693321 11.38573829 11.63092018 15 14 C14.67 14.99 14.34 15.98 14 17 C10.61334013 17 8.58888157 16.54459576 6.078125 14.22265625 C1.7156381 9.23824456 -0.14663424 6.74517499 0 0 Z " fill="#080704" transform="translate(27,114)"/>
<path d="M0 0 C0.66 0.33 1.32 0.66 2 1 C1.67 1.33 1.34 1.66 1 2 C1.66 2.66 2.32 3.32 3 4 C2.360625 4.515625 1.72125 5.03125 1.0625 5.5625 C-1.64002035 8.75638769 -1.92716612 10.84846877 -2 15 C-0.70208018 17.89039626 -0.70208018 17.89039626 1 20 C2.65 19.67 4.3 19.34 6 19 C5.34 19.99 4.68 20.98 4 22 C5.98 22.33 7.96 22.66 10 23 C10 23.33 10 23.66 10 24 C0.98923284 24.78734859 0.98923284 24.78734859 -3.0625 21.5625 C-3.701875 20.716875 -4.34125 19.87125 -5 19 C-5.33 18.67 -5.66 18.34 -6 18 C-6.58411619 12.91531642 -6.56749559 9.05932511 -4.125 4.5 C-2 2 -2 2 0 0 Z " fill="#18140A" transform="translate(78,83)"/>
<path d="M0 0 C2.31 0 4.62 0 7 0 C6.59683075 6.31631828 4.28767869 10.64993984 1 16 C0.01 16 -0.98 16 -2 16 C-2 16.66 -2 17.32 -2 18 C-2.66 18 -3.32 18 -4 18 C-2.68 12.06 -1.36 6.12 0 0 Z " fill="#DBB60A" transform="translate(87,59)"/>
<path d="M0 0 C0.33 0.66 0.66 1.32 1 2 C1.99 2.33 2.98 2.66 4 3 C3.39671875 3.21914062 2.7934375 3.43828125 2.171875 3.6640625 C-4.56692596 6.33784482 -7.31963459 9.13515955 -10.25 15.875 C-10.4975 16.57625 -10.745 17.2775 -11 18 C-11.66 18 -12.32 18 -13 18 C-13 19.98 -13 21.96 -13 24 C-13.33 24 -13.66 24 -14 24 C-14.02694851 22.04174127 -14.04637218 20.08337774 -14.0625 18.125 C-14.07410156 17.03445312 -14.08570312 15.94390625 -14.09765625 14.8203125 C-14 12 -14 12 -13 10 C-12.34 10 -11.68 10 -11 10 C-10.7525 9.236875 -10.505 8.47375 -10.25 7.6875 C-8.41395019 3.7399929 -6.17579397 2.50772921 -2.25 0.8125 C-1.5075 0.544375 -0.765 0.27625 0 0 Z " fill="#DFC847" transform="translate(82,78)"/>
<path d="M0 0 C2.625 2.5 2.625 2.5 4 5 C3.67 5.66 3.34 6.32 3 7 C2.13375 6.46375 1.2675 5.9275 0.375 5.375 C-2.89485007 3.7150888 -2.89485007 3.7150888 -6.1875 4.4375 C-9.71501401 6.39723 -10.55313683 8.30246079 -12 12 C-12.66 12 -13.32 12 -14 12 C-14.47567568 4.86486486 -14.47567568 4.86486486 -12.625 1.5 C-8.55091394 -0.82804918 -4.56955087 -0.91846454 0 0 Z " fill="#0D0B05" transform="translate(60,8)"/>
<path d="M0 0 C0.99 0 1.98 0 3 0 C4.70754834 2.97465763 5.27317355 5.13860832 5.25 8.5625 C5.25515625 9.32691406 5.2603125 10.09132813 5.265625 10.87890625 C5 13 5 13 3 16 C1.68 16 0.36 16 -1 16 C-1.02692484 13.70839681 -1.04636124 11.41670454 -1.0625 9.125 C-1.07410156 7.84882812 -1.08570312 6.57265625 -1.09765625 5.2578125 C-1 2 -1 2 0 0 Z " fill="#F3F3F1" transform="translate(90,88)"/>
<path d="M0 0 C1.8871875 0.061875 1.8871875 0.061875 3.8125 0.125 C2.8125 2.125 2.8125 2.125 -0.5 3.5 C-3.87454179 4.91758415 -6.04659449 6.03258093 -8.1875 9.125 C-9.09757748 12.42728113 -9.69612588 15.73710472 -10.1875 19.125 C-10.8475 19.125 -11.5075 19.125 -12.1875 19.125 C-12.5175 20.115 -12.8475 21.105 -13.1875 22.125 C-14.22057219 10.64642007 -14.22057219 10.64642007 -10.375 5.5 C-7.30933798 1.91204001 -4.84249425 -0.1587703 0 0 Z " fill="#F0D10F" transform="translate(20.1875,79.875)"/>
<path d="M0 0 C0.08096803 1.45742463 0.13917774 2.91612807 0.1875 4.375 C0.22230469 5.18710938 0.25710937 5.99921875 0.29296875 6.8359375 C0.19628906 7.55007812 0.09960938 8.26421875 0 9 C-0.99 9.66 -1.98 10.32 -3 11 C-3.25030977 13.58380177 -3.25030977 13.58380177 -3 16 C-1.02 16.33 0.96 16.66 3 17 C3 17.33 3 17.66 3 18 C0.69 18 -1.62 18 -4 18 C-3.67 19.32 -3.34 20.64 -3 22 C-1.35 22.33 0.3 22.66 2 23 C1.67 23.66 1.34 24.32 1 25 C-0.98 25.33 -2.96 25.66 -5 26 C-5 17.75 -5 9.5 -5 1 C-2 0 -2 0 0 0 Z " fill="#CAB455" transform="translate(55,142)"/>
<path d="M0 0 C2.64 0.33 5.28 0.66 8 1 C8 1.99 8 2.98 8 4 C8.99 4 9.98 4 11 4 C11.33 6.31 11.66 8.62 12 11 C12.66 11 13.32 11 14 11 C14 12.32 14 13.64 14 15 C10.38522825 13.50198648 8.31379537 11.42462583 5.75 8.5 C5.04359375 7.7059375 4.3371875 6.911875 3.609375 6.09375 C2 4 2 4 2 2 C1.34 2 0.68 2 0 2 C0 1.34 0 0.68 0 0 Z " fill="#0B0A07" transform="translate(2,56)"/>
<path d="M0 0 C0.45890625 0.40992187 0.9178125 0.81984375 1.390625 1.2421875 C2.00421875 1.78101562 2.6178125 2.31984375 3.25 2.875 C3.85328125 3.40867187 4.4565625 3.94234375 5.078125 4.4921875 C9.56051848 8.00886206 13.45360949 8.44536095 19 9 C18.34 13.62 17.68 18.24 17 23 C16.67 23 16.34 23 16 23 C16 20.03 16 17.06 16 14 C15.01 14.33 14.02 14.66 13 15 C12.46375 14.4225 11.9275 13.845 11.375 13.25 C8.77187087 10.78387767 5.98889779 8.97140067 3 7 C1.125 5.5 1.125 5.5 0 4 C0 2.68 0 1.36 0 0 Z " fill="#050402" transform="translate(70,101)"/>
<path d="M0 0 C-0.99 0.66 -1.98 1.32 -3 2 C-3 2.66 -3 3.32 -3 4 C-4.093125 4.433125 -5.18625 4.86625 -6.3125 5.3125 C-10.17770364 6.97437542 -10.17770364 6.97437542 -13 10 C-13.74386068 12.30988315 -14.42190703 14.64315944 -15 17 C-15.99 16.34 -16.98 15.68 -18 15 C-17.125 8.25 -17.125 8.25 -16 6 C-15.34 6 -14.68 6 -14 6 C-14 5.34 -14 4.68 -14 4 C-9.22642128 1.28608722 -5.65611463 -0.56561146 0 0 Z " fill="#F4D61C" transform="translate(59,3)"/>
<path d="M0 0 C0.33 0 0.66 0 1 0 C1 16.83 1 33.66 1 51 C0.34 50.67 -0.32 50.34 -1 50 C-0.98259766 49.07767578 -0.98259766 49.07767578 -0.96484375 48.13671875 C-0.95582031 47.32847656 -0.94679687 46.52023438 -0.9375 45.6875 C-0.92589844 44.88699219 -0.91429687 44.08648437 -0.90234375 43.26171875 C-0.90342145 40.83138666 -0.90342145 40.83138666 -2 38 C-1.66666667 35.66666667 -1.33333333 33.33333333 -1 31 C-1.33 30.01 -1.66 29.02 -2 28 C-1.7626566 26.16906521 -1.52067787 24.33859779 -1.25390625 22.51171875 C-0.94656948 19.4714489 -0.96835813 16.4926983 -1 13.4375 C-1.04295034 8.82033794 -0.84368173 4.53478932 0 0 Z " fill="#DBBB06" transform="translate(54,59)"/>
<path d="M0 0 C0.33 1.32 0.66 2.64 1 4 C2.04939588 6.53807376 3.14736278 9.05058614 4.2578125 11.5625 C5.06412313 14.21059385 4.93694829 15.43821734 4 18 C3.67 16.68 3.34 15.36 3 14 C2.34 14 1.68 14 1 14 C0.67 11.69 0.34 9.38 0 7 C-0.99 7 -1.98 7 -3 7 C-3 6.01 -3 5.02 -3 4 C-5.31 3.67 -7.62 3.34 -10 3 C-10 2.34 -10 1.68 -10 1 C-6.7 0.67 -3.4 0.34 0 0 Z M0 17 C0.99 17.33 1.98 17.66 3 18 C3.33 19.65 3.66 21.3 4 23 C2.62437146 21.71034824 1.29233607 20.37310707 0 19 C0 18.34 0 17.68 0 17 Z " fill="#3E3012" transform="translate(13,53)"/>
<path d="M0 0 C1.32 0.33 2.64 0.66 4 1 C4 5.29 4 9.58 4 14 C2.68 14 1.36 14 0 14 C-1.99825961 11.00261059 -2.27550398 10.36652492 -2.25 7 C-2.25515625 6.319375 -2.2603125 5.63875 -2.265625 4.9375 C-2 3 -2 3 0 0 Z " fill="#EEEDE8" transform="translate(16,88)"/>
<path d="M0 0 C0.33 0.66 0.66 1.32 1 2 C2.65391846 2.39171753 4.32345271 2.72057545 6 3 C6.99 3.33 7.98 3.66 9 4 C9.33 3.01 9.66 2.02 10 1 C10.2475 2.03125 10.495 3.0625 10.75 4.125 C11.55002051 7.02362503 12.26172628 8.35410027 14.125 10.875 C16.61280467 15.02134111 16.37702338 18.28720779 16 23 C15.67 21.68 15.34 20.36 15 19 C14.34 19 13.68 19 13 19 C12.34 17.35 11.68 15.7 11 14 C11.66 14 12.32 14 13 14 C11.00894308 10.47736083 9.78225364 8.36616128 6.0625 6.625 C3.2607063 6.05320537 0.84669114 5.83254758 -2 6 C-1.01 5.34 -0.02 4.68 1 4 C0.67 2.68 0.34 1.36 0 0 Z " fill="#493908" transform="translate(83,77)"/>
<path d="M0 0 C4 2 4 2 6 4 C6.43371114 9.2912759 6.48523002 12.71048613 3 17 C2.34 17 1.68 17 1 17 C0.67 11.39 0.34 5.78 0 0 Z " fill="#F6F6F6" transform="translate(28,87)"/>
<path d="M0 0 C0.33 0 0.66 0 1 0 C1.33 6.6 1.66 13.2 2 20 C-0.31 20 -2.62 20 -5 20 C-5 19.01 -5 18.02 -5 17 C-4.01 16.34 -3.02 15.68 -2 15 C-1.71080081 11.93942514 -1.71080081 11.93942514 -1.9375 8.5 C-2.08984375 4.96875 -2.08984375 4.96875 -2 2 C-1.34 1.34 -0.68 0.68 0 0 Z " fill="#070500" transform="translate(26,86)"/>
<path d="M0 0 C0.33 0.99 0.66 1.98 1 3 C4.00847418 4.22520264 4.00847418 4.22520264 7 5 C7 6.32 7 7.64 7 9 C7.680625 9.969375 8.36125 10.93875 9.0625 11.9375 C11 15 11 15 10.75 17.875 C10.37875 18.926875 10.37875 18.926875 10 20 C8.68 18.35 7.36 16.7 6 15 C6.66 14.67 7.32 14.34 8 14 C4.50995668 10.09936334 1.94590067 8.53872465 -3 7 C-3.66 6.01 -4.32 5.02 -5 4 C-3.35 4 -1.7 4 0 4 C0 2.68 0 1.36 0 0 Z " fill="#513E07" transform="translate(26,75)"/>
<path d="M0 0 C3.63 0.66 7.26 1.32 11 2 C10.67 3.98 10.34 5.96 10 8 C8.68 7.34 7.36 6.68 6 6 C6.20496094 6.60328125 6.40992188 7.2065625 6.62109375 7.828125 C6.89050781 8.62734375 7.15992188 9.4265625 7.4375 10.25 C7.83775391 11.43335937 7.83775391 11.43335937 8.24609375 12.640625 C8.91954708 14.74821988 9.49150595 16.84753973 10 19 C9.01 18.67 8.02 18.34 7 18 C6.01132401 15.4887043 5.18814907 13.08109616 4.4375 10.5 C3.68645113 7.96550073 2.88318151 5.49506064 2 3 C1.34 2.67 0.68 2.34 0 2 C0 1.34 0 0.68 0 0 Z " fill="#BCB9AE" transform="translate(16,111)"/>
<path d="M0 0 C3.3 0 6.6 0 10 0 C9.67 0.66 9.34 1.32 9 2 C8.01 2.33 7.02 2.66 6 3 C5.67 4.98 5.34 6.96 5 9 C2.6568787 8.74438677 0.32156597 8.40729228 -2 8 C-2.33 7.34 -2.66 6.68 -3 6 C-2.34 6 -1.68 6 -1 6 C-1.33 4.68 -1.66 3.36 -2 2 C-1.34 2 -0.68 2 0 2 C0 1.34 0 0.68 0 0 Z " fill="#D5B620" transform="translate(51,20)"/>
<path d="M0 0 C0.66 0 1.32 0 2 0 C1.67 5.28 1.34 10.56 1 16 C-0.32 15.34 -1.64 14.68 -3 14 C-4.20389851 9.82648518 -4.27344502 7.67118323 -2.625 3.625 C-1 1 -1 1 0 0 Z " fill="#F1F0EF" transform="translate(79,87)"/>
<path d="M0 0 C2.59515537 0.35069667 4.52570246 0.66623506 6.6875 2.1875 C10.24904261 7.10582075 10.10427329 11.4977952 9.2890625 17.2421875 C9.14597656 18.11230469 9.14597656 18.11230469 9 19 C5.87723472 15.73529085 5.25512259 12.41480433 4.4296875 8.12109375 C4.00941969 5.82563303 4.00941969 5.82563303 3 3 C2.01 2.67 1.02 2.34 0 2 C0 1.34 0 0.68 0 0 Z " fill="#12100B" transform="translate(61,6)"/>
<path d="M0 0 C3.24474984 0.27039582 4.79204902 0.8257708 7.3125 2.9375 C9.64462691 7.16987847 9.89296598 11.25360425 9 16 C7.47265625 17.8046875 7.47265625 17.8046875 6 19 C5.97421875 18.27554688 5.9484375 17.55109375 5.921875 16.8046875 C5.55727217 10.58986649 4.96412087 6.83127231 1 2 C0.67 1.34 0.34 0.68 0 0 Z " fill="#151108" transform="translate(31,82)"/>
<path d="M0 0 C0.33 0 0.66 0 1 0 C1.11601004 3.60389664 1.18718408 7.20731467 1.25 10.8125 C1.28351562 11.83666016 1.31703125 12.86082031 1.3515625 13.91601562 C1.36445312 14.89892578 1.37734375 15.88183594 1.390625 16.89453125 C1.41157227 17.80050049 1.43251953 18.70646973 1.45410156 19.63989258 C1 22 1 22 -0.85644531 23.83081055 C-3 25 -3 25 -5.6875 24.8125 C-8 24 -8 24 -9 22 C-7.35 21.67 -5.7 21.34 -4 21 C-5.32 20.34 -6.64 19.68 -8 19 C-4.535 18.505 -4.535 18.505 -1 18 C-0.505 9.09 -0.505 9.09 0 0 Z " fill="#433B1F" transform="translate(60,145)"/>
<path d="M0 0 C2.64 0 5.28 0 8 0 C7.01 1.485 7.01 1.485 6 3 C5.60612212 5.32387947 5.26513915 7.65793749 5 10 C3.02 9.34 1.04 8.68 -1 8 C-0.67 5.36 -0.34 2.72 0 0 Z " fill="#FAD403" transform="translate(51,42)"/>
<path d="M0 0 C0.556875 0.763125 1.11375 1.52625 1.6875 2.3125 C3.96679369 4.96140888 5.93599872 6.38288822 9 8 C9 7.34 9 6.68 9 6 C9.66 6 10.32 6 11 6 C11 6.66 11 7.32 11 8 C12.65 8 14.3 8 16 8 C16 8.33 16 8.66 16 9 C9.8108484 11.35187761 9.8108484 11.35187761 5.6875 9.5625 C4.800625 9.046875 3.91375 8.53125 3 8 C2.01 8.495 2.01 8.495 1 9 C-2 4.375 -2 4.375 -2 1 C-1.34 0.67 -0.68 0.34 0 0 Z " fill="#473609" transform="translate(10,98)"/>
<path d="M0 0 C0.33 0.99 0.66 1.98 1 3 C2.32 2.67 3.64 2.34 5 2 C4.67 3.32 4.34 4.64 4 6 C13.9 6 23.8 6 34 6 C34 6.33 34 6.66 34 7 C22.78 7 11.56 7 0 7 C0 4.69 0 2.38 0 0 Z " fill="#4F3701" transform="translate(56,45)"/>
<path d="M0 0 C0.33 0.66 0.66 1.32 1 2 C1.66 2 2.32 2 3 2 C3.42999879 5.00999152 3.57226998 7.14448529 1.83984375 9.734375 C-0.68534424 12.44685315 -2.12503497 13.88587413 -5.875 14.375 C-6.57625 14.25125 -7.2775 14.1275 -8 14 C-7.25 12.0625 -7.25 12.0625 -6 10 C-4.68 9.67 -3.36 9.34 -2 9 C-1.34 6.03 -0.68 3.06 0 0 Z " fill="#E7C91C" transform="translate(95,94)"/>
<path d="M0 0 C0.33 0 0.66 0 1 0 C1 3.96 1 7.92 1 12 C-0.32 12.33 -1.64 12.66 -3 13 C-2.67 11.35 -2.34 9.7 -2 8 C-4.31 7.67 -6.62 7.34 -9 7 C-8.34 6.67 -7.68 6.34 -7 6 C-6.67 5.34 -6.34 4.68 -6 4 C-4.02 4 -2.04 4 0 4 C0 2.68 0 1.36 0 0 Z " fill="#1A1710" transform="translate(60,35)"/>
<path d="M0 0 C0.33 0 0.66 0 1 0 C2.33333333 4 3.66666667 8 5 12 C5.66 12 6.32 12 7 12 C7 12.66 7 13.32 7 14 C3.9925959 13.67777813 2.99223238 12.99223238 0.8125 10.8125 C-1.17393896 7.73009471 -1.83779349 5.64964642 -2 2 C-1.34 1.34 -0.68 0.68 0 0 Z " fill="#0C0A06" transform="translate(12,92)"/>
<path d="M0 0 C0.66 0.33 1.32 0.66 2 1 C2 2.32 2 3.64 2 5 C4.97 5.495 4.97 5.495 8 6 C8 6.33 8 6.66 8 7 C2.22772713 7.36844295 -2.7230161 6.46863195 -8 4 C-8.33 3.34 -8.66 2.68 -9 2 C-6.03 2 -3.06 2 0 2 C0 1.34 0 0.68 0 0 Z " fill="#917102" transform="translate(47,130)"/>
<path d="M0 0 C0.33 0 0.66 0 1 0 C1 2.64 1 5.28 1 8 C-0.98 8 -2.96 8 -5 8 C-5.33 6.35 -5.66 4.7 -6 3 C-4.68 2.34 -3.36 1.68 -2 1 C-1.67 1.33 -1.34 1.66 -1 2 C-0.67 1.34 -0.34 0.68 0 0 Z " fill="#EECB09" transform="translate(54,128)"/>
<path d="M0 0 C4.62 0 9.24 0 14 0 C14 0.33 14 0.66 14 1 C12.35 1.33 10.7 1.66 9 2 C8.67 2.99 8.34 3.98 8 5 C8.66 5 9.32 5 10 5 C10 5.66 10 6.32 10 7 C9.01 7.33 8.02 7.66 7 8 C6.34 7.67 5.68 7.34 5 7 C5.33 5.68 5.66 4.36 6 3 C4.68 3 3.36 3 2 3 C2 2.34 2 1.68 2 1 C1.34 0.67 0.68 0.34 0 0 Z " fill="#C7A306" transform="translate(6,45)"/>
<path d="M0 0 C0.99 1.32 1.98 2.64 3 4 C2.01 4.495 2.01 4.495 1 5 C1.02320313 5.96421875 1.04640625 6.9284375 1.0703125 7.921875 C1.08835938 9.18515625 1.10640625 10.4484375 1.125 11.75 C1.14820313 13.00296875 1.17140625 14.2559375 1.1953125 15.546875 C1.00941381 18.83356378 0.54014637 20.21814393 -1 23 C-1.02894547 19.54168414 -1.04678 16.08339928 -1.0625 12.625 C-1.07087891 11.64015625 -1.07925781 10.6553125 -1.08789062 9.640625 C-1.09111328 8.69960937 -1.09433594 7.75859375 -1.09765625 6.7890625 C-1.10289307 5.91975098 -1.10812988 5.05043945 -1.11352539 4.15478516 C-1 2 -1 2 0 0 Z " fill="#BF9C0F" transform="translate(52,106)"/>
<path d="M0 0 C0 2.97 0 5.94 0 9 C-1.98 9.99 -1.98 9.99 -4 11 C-4.33 7.7 -4.66 4.4 -5 1 C-2 0 -2 0 0 0 Z " fill="#BB9907" transform="translate(55,142)"/>
<path d="M0 0 C3.83641483 1.50716297 5.85990819 3.48413488 8 7 C8.32789227 9.76146771 8.18960429 12.20333676 8 15 C7.01 15.495 7.01 15.495 6 16 C5.85304688 15.11248047 5.85304688 15.11248047 5.703125 14.20703125 C4.73033568 9.06634287 3.5992157 5.95913727 0 2 C0 1.34 0 0.68 0 0 Z " fill="#090805" transform="translate(93,82)"/>
<path d="M0 0 C-0.99 0.66 -1.98 1.32 -3 2 C-3 2.66 -3 3.32 -3 4 C-4.45463481 4.38909985 -5.91391207 4.76088029 -7.375 5.125 C-8.18710937 5.33382813 -8.99921875 5.54265625 -9.8359375 5.7578125 C-10.55007812 5.83773438 -11.26421875 5.91765625 -12 6 C-12.66 5.34 -13.32 4.68 -14 4 C-9.22642128 1.28608722 -5.65611463 -0.56561146 0 0 Z " fill="#EAD040" transform="translate(59,3)"/>
<path d="M0 0 C0.33 0.66 0.66 1.32 1 2 C1.66 2 2.32 2 3 2 C3 4.64 3 7.28 3 10 C1.02 10.99 1.02 10.99 -1 12 C-1.02712066 10.56260487 -1.04645067 9.12506137 -1.0625 7.6875 C-1.07410156 6.88699219 -1.08570312 6.08648437 -1.09765625 5.26171875 C-1 3 -1 3 0 0 Z " fill="#B69505" transform="translate(82,91)"/>
<path d="M0 0 C0.33 1.32 0.66 2.64 1 4 C0.01 5.485 0.01 5.485 -1 7 C-1.66 7 -2.32 7 -3 7 C-3 6.01 -3 5.02 -3 4 C-5.31 3.67 -7.62 3.34 -10 3 C-10 2.34 -10 1.68 -10 1 C-6.7 0.67 -3.4 0.34 0 0 Z " fill="#402F01" transform="translate(13,53)"/>
<path d="M0 0 C0.99 0 1.98 0 3 0 C3.36923077 6.4 3.36923077 6.4 1.5 9.4375 C1.005 9.953125 0.51 10.46875 0 11 C-0.99 10.67 -1.98 10.34 -3 10 C-2.67 8.68 -2.34 7.36 -2 6 C-1.34 6 -0.68 6 0 6 C0 4.02 0 2.04 0 0 Z " fill="#CFAD0B" transform="translate(63,16)"/>
<path d="M0 0 C0.33 0 0.66 0 1 0 C1.08114106 1.77007714 1.13925505 3.54122098 1.1875 5.3125 C1.22230469 6.29863281 1.25710937 7.28476563 1.29296875 8.30078125 C1 11 1 11 -0.38671875 12.85546875 C-2 14 -2 14 -4 14 C-5.34882408 14.63474075 -6.6846659 15.29848848 -8 16 C-7.59007813 15.43152344 -7.18015625 14.86304687 -6.7578125 14.27734375 C-3.46970786 9.56544261 -1.19781704 5.62974007 0 0 Z " fill="#1E1A0C" transform="translate(101,91)"/>
<path d="M0 0 C0.99 0.2165625 0.99 0.2165625 2 0.4375 C5.65599551 1.12299916 9.30622195 1.56175515 13 2 C11 4 11 4 8.1796875 4.1953125 C7.08914062 4.17210937 5.99859375 4.14890625 4.875 4.125 C3.77929688 4.10695313 2.68359375 4.08890625 1.5546875 4.0703125 C0.71164063 4.04710937 -0.13140625 4.02390625 -1 4 C-0.67 2.68 -0.34 1.36 0 0 Z " fill="#D1AD02" transform="translate(61,47)"/>
<path d="M0 0 C0.66 0.33 1.32 0.66 2 1 C1.34 1.66 0.68 2.32 0 3 C-1.70422546 6.60894804 -2.4499338 10.05785891 -3 14 C-3.66 12.68 -4.32 11.36 -5 10 C-5.99 10.495 -5.99 10.495 -7 11 C-5.72278474 6.00724943 -3.82669043 3.42388092 0 0 Z " fill="#28200B" transform="translate(17,83)"/>
<path d="M0 0 C0.99 0 1.98 0 3 0 C3 0.66 3 1.32 3 2 C3.66 2.33 4.32 2.66 5 3 C4.34 3 3.68 3 3 3 C2.67 4.65 2.34 6.3 2 8 C1.67 7.34 1.34 6.68 1 6 C-1.64 6 -4.28 6 -7 6 C-5 5 -3 4 -1 3 C-0.67 2.01 -0.34 1.02 0 0 Z " fill="#977908" transform="translate(93,53)"/>
<path d="M0 0 C-0.66 1.32 -1.32 2.64 -2 4 C-2.99 4 -3.98 4 -5 4 C-5 6.97 -5 9.94 -5 13 C-7.64 13 -10.28 13 -13 13 C-13 12.67 -13 12.34 -13 12 C-10.69 12 -8.38 12 -6 12 C-6 8.37 -6 4.74 -6 1 C-3 0 -3 0 0 0 Z " fill="#B8A247" transform="translate(56,32)"/>
<path d="M0 0 C1.5625 1.5625 1.5625 1.5625 3 4 C2.6875 7.75 2.6875 7.75 2 11 C1.34 11 0.68 11 0 11 C-0.33 11.99 -0.66 12.98 -1 14 C-1.02694851 12.04174127 -1.04637218 10.08337774 -1.0625 8.125 C-1.07410156 7.03445312 -1.08570313 5.94390625 -1.09765625 4.8203125 C-1 2 -1 2 0 0 Z " fill="#DAC040" transform="translate(8,88)"/>
<path d="M0 0 C0.33 0.99 0.66 1.98 1 3 C4.00847418 4.22520264 4.00847418 4.22520264 7 5 C5.68 5.33 4.36 5.66 3 6 C3 6.66 3 7.32 3 8 C0.125 7.6875 0.125 7.6875 -3 7 C-3.66 6.01 -4.32 5.02 -5 4 C-3.35 4 -1.7 4 0 4 C0 2.68 0 1.36 0 0 Z " fill="#826D27" transform="translate(26,75)"/>
<path d="M0 0 C1.9451 2.91765 2.45276317 4.62537285 3 8 C2.2575 8.28875 1.515 8.5775 0.75 8.875 C-1.56900199 9.82368263 -3.76932676 10.86559779 -6 12 C-5.65066406 11.46890625 -5.30132812 10.9378125 -4.94140625 10.390625 C-4.48636719 9.68421875 -4.03132813 8.9778125 -3.5625 8.25 C-2.88380859 7.20585938 -2.88380859 7.20585938 -2.19140625 6.140625 C-1.0391991 4.07042986 -0.45323018 2.31303676 0 0 Z " fill="#F9DF2C" transform="translate(78,112)"/>
<path d="M0 0 C-4.04998722 3.40198926 -8.63626649 6 -14 6 C-14 5.34 -14 4.68 -14 4 C-4.58997722 -0.59225513 -4.58997722 -0.59225513 0 0 Z " fill="#383733" transform="translate(75,137)"/>
<path d="M0 0 C0.66 0 1.32 0 2 0 C3.32 2.31 4.64 4.62 6 7 C4.02 7.99 4.02 7.99 2 9 C0.14223235 5.86501708 -0.20140476 3.62528568 0 0 Z " fill="#231B04" transform="translate(24,121)"/>
<path d="M0 0 C-1 3 -1 3 -3 4 C-4.54023996 4.06950541 -6.08334988 4.08452357 -7.625 4.0625 C-8.85089844 4.04896484 -8.85089844 4.04896484 -10.1015625 4.03515625 C-11.04128906 4.01775391 -11.04128906 4.01775391 -12 4 C-11 2 -11 2 -9.2578125 1.3671875 C-8.55398437 1.20476562 -7.85015625 1.04234375 -7.125 0.875 C-6.07699219 0.62363281 -6.07699219 0.62363281 -5.0078125 0.3671875 C-3 0 -3 0 0 0 Z " fill="#D4B405" transform="translate(32,105)"/>
<path d="M0 0 C0.33 0.66 0.66 1.32 1 2 C1.99 2.33 2.98 2.66 4 3 C2.5682384 3.69937202 1.12932968 4.38412718 -0.3125 5.0625 C-1.51326172 5.63677734 -1.51326172 5.63677734 -2.73828125 6.22265625 C-5 7 -5 7 -8 6 C-7.34 5.34 -6.68 4.68 -6 4 C-5.01 4 -4.02 4 -3 4 C-2.67 3.01 -2.34 2.02 -2 1 C-1.34 0.67 -0.68 0.34 0 0 Z " fill="#EFCF11" transform="translate(82,78)"/>
<path d="M0 0 C0.33 2.97 0.66 5.94 1 9 C-2 9 -2 9 -4 8 C-4.1875 5.125 -4.1875 5.125 -4 2 C-1 0 -1 0 0 0 Z " fill="#8A6F08" transform="translate(45,16)"/>
<path d="M0 0 C1.98 0 3.96 0 6 0 C7.31157516 2.62315032 6.89649988 4.23033436 6.5625 7.125 C6.46066406 8.03507812 6.35882813 8.94515625 6.25390625 9.8828125 C6.17011719 10.58148438 6.08632812 11.28015625 6 12 C5.67 12 5.34 12 5 12 C5 9.03 5 6.06 5 3 C4.01 3.33 3.02 3.66 2 4 C1.34 2.68 0.68 1.36 0 0 Z " fill="#49401E" transform="translate(81,112)"/>
<path d="M0 0 C0.99 0.33 1.98 0.66 3 1 C2.47731534 3.76276177 1.89130413 6.3260876 1 9 C1.99 9.33 2.98 9.66 4 10 C2.68 10 1.36 10 0 10 C-0.19412181 8.52168779 -0.38012131 7.04230684 -0.5625 5.5625 C-0.66691406 4.73878906 -0.77132813 3.91507812 -0.87890625 3.06640625 C-0.91886719 2.38449219 -0.95882813 1.70257813 -1 1 C-0.67 0.67 -0.34 0.34 0 0 Z " fill="#251B06" transform="translate(17,70)"/>
<path d="M0 0 C0.99 0.33 1.98 0.66 3 1 C2.67 2.65 2.34 4.3 2 6 C0.68 6.33 -0.64 6.66 -2 7 C-2.125 4.625 -2.125 4.625 -2 2 C-1.34 1.34 -0.68 0.68 0 0 Z " fill="#271E03" transform="translate(58,21)"/>
<path d="M0 0 C1.98 0 3.96 0 6 0 C5.67 1.98 5.34 3.96 5 6 C2.525 5.01 2.525 5.01 0 4 C0 2.68 0 1.36 0 0 Z " fill="#E3C10B" transform="translate(21,113)"/>
<path d="M0 0 C2.2477975 2.05233685 3.0022242 3.00667261 4 6 C4.03954234 8.33299825 4.04401732 10.66708189 4 13 C3.67 13 3.34 13 3 13 C3 11.02 3 9.04 3 7 C1.35 6.67 -0.3 6.34 -2 6 C-1.34 5.34 -0.68 4.68 0 4 C-0.33 3.01 -0.66 2.02 -1 1 C-0.67 0.67 -0.34 0.34 0 0 Z " fill="#58450B" transform="translate(63,9)"/>
<path d="M0 0 C1.5 1.375 1.5 1.375 3 3 C3 3.66 3 4.32 3 5 C4.65 5 6.3 5 8 5 C8 5.33 8 5.66 8 6 C5.36 6 2.72 6 0 6 C-0.33 6.66 -0.66 7.32 -1 8 C-1.125 2.25 -1.125 2.25 0 0 Z " fill="#BF9A08" transform="translate(3,48)"/>
<path d="M0 0 C2.31 1.98 4.62 3.96 7 6 C3.37673261 7.2077558 2.35853631 6.54311128 -1 5 C-0.67 3.35 -0.34 1.7 0 0 Z " fill="#F4D20B" transform="translate(3,45)"/>
<path d="M0 0 C2.31 1.98 4.62 3.96 7 6 C6.01 7.485 6.01 7.485 5 9 C2.5 6.75 2.5 6.75 0 4 C0 2.68 0 1.36 0 0 Z " fill="#221D14" transform="translate(70,101)"/>
<path d="M0 0 C0.66 0.33 1.32 0.66 2 1 C2 3.97 2 6.94 2 10 C1.67 8.68 1.34 7.36 1 6 C0.34 6 -0.32 6 -1 6 C-1.66 4.35 -2.32 2.7 -3 1 C-2.01 0.67 -1.02 0.34 0 0 Z " fill="#856A08" transform="translate(97,90)"/>
<path d="M0 0 C1.65 0 3.3 0 5 0 C4.625 2.4375 4.625 2.4375 4 5 C3.01 5.495 3.01 5.495 2 6 C2 5.34 2 4.68 2 4 C1.34 4 0.68 4 0 4 C0 2.68 0 1.36 0 0 Z " fill="#F0C701" transform="translate(89,59)"/>
<path d="M0 0 C1.32 0.66 2.64 1.32 4 2 C3.01 2 2.02 2 1 2 C1 2.99 1 3.98 1 5 C1.66 5 2.32 5 3 5 C3 5.66 3 6.32 3 7 C3.66 7.33 4.32 7.66 5 8 C2.69 8 0.38 8 -2 8 C-1.34 5.36 -0.68 2.72 0 0 Z " fill="#C6AA20" transform="translate(61,127)"/>
<path d="M0 0 C0 0.66 0 1.32 0 2 C-3.3 2 -6.6 2 -10 2 C-10.33 1.34 -10.66 0.68 -11 0 C-6.98195309 -0.84098656 -3.98196457 -1.05404945 0 0 Z " fill="#BA9505" transform="translate(25,46)"/>
<path d="M0 0 C1.98 0 3.96 0 6 0 C5.01 1.485 5.01 1.485 4 3 C3.60612212 5.32387947 3.26513915 7.65793749 3 10 C2.34 9.67 1.68 9.34 1 9 C1.020625 8.071875 1.04125 7.14375 1.0625 6.1875 C1.15769604 2.97713989 1.15769604 2.97713989 0 0 Z " fill="#B59103" transform="translate(53,42)"/>
<path d="M0 0 C0.66 0.33 1.32 0.66 2 1 C1.67 1.33 1.34 1.66 1 2 C1.66 2.66 2.32 3.32 3 4 C1.35 5.32 -0.3 6.64 -2 8 C-2 7.01 -2 6.02 -2 5 C-2.66 4.67 -3.32 4.34 -4 4 C-2.68 2.68 -1.36 1.36 0 0 Z " fill="#3A3112" transform="translate(78,83)"/>
<path d="M0 0 C0.33 0.66 0.66 1.32 1 2 C3.52733235 2.65555119 3.52733235 2.65555119 6 3 C6 3.99 6 4.98 6 6 C3.36 6 0.72 6 -2 6 C-1.01 5.34 -0.02 4.68 1 4 C0.67 2.68 0.34 1.36 0 0 Z " fill="#785F02" transform="translate(83,77)"/>
<path d="M0 0 C3.63 0 7.26 0 11 0 C9 4 9 4 7 5 C6.67 4.01 6.34 3.02 6 2 C3.03 1.505 3.03 1.505 0 1 C0 0.67 0 0.34 0 0 Z " fill="#AD8902" transform="translate(93,46)"/>
<path d="M0 0 C2.31 0 4.62 0 7 0 C6.67 0.99 6.34 1.98 6 3 C3.36 3 0.72 3 -2 3 C-1.34 2.67 -0.68 2.34 0 2 C0 1.34 0 0.68 0 0 Z " fill="#1A1302" transform="translate(53,39)"/>
<path d="M0 0 C2.475 0.99 2.475 0.99 5 2 C5 2.66 5 3.32 5 4 C2.39417629 4.93065133 1.35801776 5.14917407 -1.25 4.0625 C-1.8275 3.711875 -2.405 3.36125 -3 3 C-2.01 2.01 -1.02 1.02 0 0 Z " fill="#584401" transform="translate(42,128)"/>
<path d="M0 0 C2.64 0.33 5.28 0.66 8 1 C4.5647952 3.29013653 3.014669 3.17842973 -1 3 C-0.67 2.01 -0.34 1.02 0 0 Z " fill="#A08302" transform="translate(82,107)"/>
<path d="M0 0 C0.66 0 1.32 0 2 0 C2 1.32 2 2.64 2 4 C2.66 4 3.32 4 4 4 C4 4.66 4 5.32 4 6 C2.68 6 1.36 6 0 6 C-0.33 6.99 -0.66 7.98 -1 9 C-0.67 6.03 -0.34 3.06 0 0 Z " fill="#DEC347" transform="translate(87,59)"/>
<path d="M0 0 C0.99 0.66 1.98 1.32 3 2 C2.67 2.99 2.34 3.98 2 5 C-0.97 4.505 -0.97 4.505 -4 4 C-2.68 3.34 -1.36 2.68 0 2 C0 1.34 0 0.68 0 0 Z " fill="#201906" transform="translate(39,126)"/>
<path d="M0 0 C2.31 0.33 4.62 0.66 7 1 C7 1.99 7 2.98 7 4 C4.69 4 2.38 4 0 4 C0 2.68 0 1.36 0 0 Z " fill="#060401" transform="translate(51,160)"/>
<path d="M0 0 C1.32 0 2.64 0 4 0 C3.67 1.32 3.34 2.64 3 4 C1.35 4 -0.3 4 -2 4 C-1.34 2.68 -0.68 1.36 0 0 Z " fill="#E0BF1C" transform="translate(89,104)"/>
<path d="M0 0 C0.99 1.32 1.98 2.64 3 4 C2.67 4.66 2.34 5.32 2 6 C1.01 6 0.02 6 -1 6 C-1.33 4.35 -1.66 2.7 -2 1 C-1.34 0.67 -0.68 0.34 0 0 Z " fill="#614E0B" transform="translate(10,98)"/>
<path d="M0 0 C0.33 0.99 0.66 1.98 1 3 C2.32 2.67 3.64 2.34 5 2 C4.67 3.32 4.34 4.64 4 6 C2.68 6.33 1.36 6.66 0 7 C0 4.69 0 2.38 0 0 Z " fill="#644F02" transform="translate(56,45)"/>
<path d="M0 0 C2.31 0 4.62 0 7 0 C6.67 0.99 6.34 1.98 6 3 C3.5625 2.625 3.5625 2.625 1 2 C0.67 1.34 0.34 0.68 0 0 Z " fill="#241F10" transform="translate(51,167)"/>
<path d="M0 0 C2.64 0 5.28 0 8 0 C8 0.99 8 1.98 8 3 C4.62537285 2.45276317 2.91765 1.9451 0 0 Z " fill="#BB9302" transform="translate(62,46)"/>
</svg>
